<?xml version="1.0" encoding="utf-8" standalone="no"?>
<!DOCTYPE svg PUBLIC "-//W3C//DTD SVG 1.1//EN"
  "http://www.w3.org/Graphics/SVG/1.1/DTD/svg11.dtd">
<svg xmlns:xlink="http://www.w3.org/1999/xlink" width="819.367656pt" height="236.865547pt" viewBox="0 0 819.367656 236.865547" xmlns="http://www.w3.org/2000/svg" version="1.1">
 <metadata>
  <rdf:RDF xmlns:dc="http://purl.org/dc/elements/1.1/" xmlns:cc="http://creativecommons.org/ns#" xmlns:rdf="http://www.w3.org/1999/02/22-rdf-syntax-ns#">
   <cc:Work>
    <dc:type rdf:resource="http://purl.org/dc/dcmitype/StillImage"/>
    <dc:date>2026-06-20T16:06:32.909836</dc:date>
    <dc:format>image/svg+xml</dc:format>
    <dc:creator>
     <cc:Agent>
      <dc:title>Matplotlib v3.11.0, https://matplotlib.org/</dc:title>
     </cc:Agent>
    </dc:creator>
   </cc:Work>
  </rdf:RDF>
 </metadata>
 <defs>
  <style type="text/css">*{stroke-linejoin: round; stroke-linecap: butt}</style>
 </defs>
 <g id="figure_1">
  <g id="patch_1">
   <path d="M 0 236.865547 
L 819.367656 236.865547 
L 819.367656 0 
L 0 0 
z
" style="fill: #ffffff"/>
  </g>
  <g id="axes_1">
   <g id="patch_2">
    <path d="M 45.436172 194.115195 
L 812.167656 194.115195 
L 812.167656 40.5 
L 45.436172 40.5 
z
" style="fill: #ffffff"/>
   </g>
   <g id="matplotlib.axis_1">
    <g id="xtick_1">
     <g id="line2d_1"/>
     <g id="text_1">
      <!-- Original -->
      <g transform="translate(133.307991 212.110342) scale(0.13 -0.13)">
       <defs>
        <path id="LiberationSerif-32" d="M 916 2100 
Q 916 1091 1253 637 
Q 1591 184 2309 184 
Q 3025 184 3365 637 
Q 3706 1091 3706 2100 
Q 3706 3103 3367 3545 
Q 3028 3988 2309 3988 
Q 1588 3988 1252 3545 
Q 916 3103 916 2100 
z
M 263 2100 
Q 263 4238 2309 4238 
Q 3322 4238 3840 3695 
Q 4359 3153 4359 2100 
Q 4359 1031 3834 484 
Q 3309 -63 2309 -63 
Q 1313 -63 788 482 
Q 263 1028 263 2100 
z
" transform="scale(0.015625)"/>
        <path id="LiberationSerif-55" d="M 2075 3016 
L 2075 2222 
L 1941 2222 
L 1759 2566 
Q 1603 2566 1389 2523 
Q 1175 2481 1019 2413 
L 1019 219 
L 1522 141 
L 1522 0 
L 128 0 
L 128 141 
L 500 219 
L 500 2719 
L 128 2797 
L 128 2938 
L 984 2938 
L 1013 2572 
Q 1200 2728 1520 2872 
Q 1841 3016 2028 3016 
L 2075 3016 
z
" transform="scale(0.015625)"/>
        <path id="LiberationSerif-4c" d="M 1184 3897 
Q 1184 3759 1084 3659 
Q 984 3559 844 3559 
Q 706 3559 606 3659 
Q 506 3759 506 3897 
Q 506 4038 606 4138 
Q 706 4238 844 4238 
Q 984 4238 1084 4138 
Q 1184 4038 1184 3897 
z
M 1153 219 
L 1656 141 
L 1656 0 
L 134 0 
L 134 141 
L 634 219 
L 634 2719 
L 219 2797 
L 219 2938 
L 1153 2938 
L 1153 219 
z
" transform="scale(0.015625)"/>
        <path id="LiberationSerif-4a" d="M 2719 2009 
Q 2719 1503 2416 1243 
Q 2113 984 1544 984 
Q 1288 984 1069 1031 
L 872 622 
Q 881 569 993 522 
Q 1106 475 1275 475 
L 2144 475 
Q 2619 475 2848 269 
Q 3078 63 3078 -300 
Q 3078 -628 2895 -872 
Q 2713 -1116 2359 -1248 
Q 2006 -1381 1503 -1381 
Q 903 -1381 589 -1197 
Q 275 -1013 275 -672 
Q 275 -506 387 -345 
Q 500 -184 800 31 
Q 622 91 500 234 
Q 378 378 378 544 
L 872 1100 
Q 378 1331 378 2009 
Q 378 2491 683 2753 
Q 988 3016 1569 3016 
Q 1684 3016 1865 2992 
Q 2047 2969 2144 2938 
L 2834 3284 
L 2944 3150 
L 2509 2700 
Q 2719 2466 2719 2009 
z
M 2591 -397 
Q 2591 -219 2481 -119 
Q 2372 -19 2150 -19 
L 1013 -19 
Q 881 -131 798 -304 
Q 716 -478 716 -628 
Q 716 -897 909 -1014 
Q 1103 -1131 1503 -1131 
Q 2025 -1131 2308 -937 
Q 2591 -744 2591 -397 
z
M 1550 1222 
Q 1891 1222 2033 1417 
Q 2175 1613 2175 2009 
Q 2175 2425 2028 2601 
Q 1881 2778 1556 2778 
Q 1228 2778 1075 2600 
Q 922 2422 922 2009 
Q 922 1597 1072 1409 
Q 1222 1222 1550 1222 
z
" transform="scale(0.015625)"/>
        <path id="LiberationSerif-51" d="M 1013 2700 
Q 1253 2838 1525 2927 
Q 1797 3016 1978 3016 
Q 2359 3016 2553 2794 
Q 2747 2572 2747 2150 
L 2747 219 
L 3103 141 
L 3103 0 
L 1838 0 
L 1838 141 
L 2228 219 
L 2228 2094 
Q 2228 2353 2101 2501 
Q 1975 2650 1709 2650 
Q 1428 2650 1019 2559 
L 1019 219 
L 1416 141 
L 1416 0 
L 147 0 
L 147 141 
L 500 219 
L 500 2719 
L 147 2797 
L 147 2938 
L 984 2938 
L 1013 2700 
z
" transform="scale(0.015625)"/>
        <path id="LiberationSerif-44" d="M 1453 3003 
Q 1934 3003 2161 2806 
Q 2388 2609 2388 2203 
L 2388 219 
L 2753 141 
L 2753 0 
L 1947 0 
L 1888 294 
Q 1531 -63 978 -63 
Q 225 -63 225 813 
Q 225 1106 339 1298 
Q 453 1491 703 1592 
Q 953 1694 1428 1703 
L 1869 1716 
L 1869 2175 
Q 1869 2478 1758 2622 
Q 1647 2766 1416 2766 
Q 1103 2766 844 2619 
L 738 2253 
L 563 2253 
L 563 2894 
Q 1069 3003 1453 3003 
z
M 1869 1497 
L 1459 1484 
Q 1041 1469 892 1322 
Q 744 1175 744 831 
Q 744 281 1191 281 
Q 1403 281 1558 329 
Q 1713 378 1869 453 
L 1869 1497 
z
" transform="scale(0.015625)"/>
        <path id="LiberationSerif-4f" d="M 1147 219 
L 1650 141 
L 1650 0 
L 128 0 
L 128 141 
L 628 219 
L 628 4225 
L 128 4300 
L 128 4441 
L 1147 4441 
L 1147 219 
z
" transform="scale(0.015625)"/>
       </defs>
       <use xlink:href="#LiberationSerif-32"/>
       <use xlink:href="#LiberationSerif-55" transform="translate(72.21875 0)"/>
       <use xlink:href="#LiberationSerif-4c" transform="translate(105.515625 0)"/>
       <use xlink:href="#LiberationSerif-4a" transform="translate(133.296875 0)"/>
       <use xlink:href="#LiberationSerif-4c" transform="translate(183.296875 0)"/>
       <use xlink:href="#LiberationSerif-51" transform="translate(211.078125 0)"/>
       <use xlink:href="#LiberationSerif-44" transform="translate(261.078125 0)"/>
       <use xlink:href="#LiberationSerif-4f" transform="translate(305.46875 0)"/>
      </g>
      <!-- Gripper -->
      <g transform="translate(134.755257 225.878408) scale(0.13 -0.13)">
       <defs>
        <path id="LiberationSerif-2a" d="M 4013 219 
Q 3650 100 3259 18 
Q 2869 -63 2419 -63 
Q 1400 -63 831 487 
Q 263 1038 263 2047 
Q 263 3147 814 3692 
Q 1366 4238 2431 4238 
Q 3194 4238 3903 4050 
L 3903 3150 
L 3694 3150 
L 3609 3669 
Q 3394 3822 3092 3905 
Q 2791 3988 2456 3988 
Q 1656 3988 1286 3511 
Q 916 3034 916 2053 
Q 916 1131 1297 654 
Q 1678 178 2425 178 
Q 2688 178 2975 240 
Q 3263 303 3413 391 
L 3413 1581 
L 2875 1663 
L 2875 1831 
L 4422 1831 
L 4422 1663 
L 4013 1581 
L 4013 219 
z
" transform="scale(0.015625)"/>
        <path id="LiberationSerif-53" d="M 475 2719 
L 141 2797 
L 141 2938 
L 966 2938 
L 972 2766 
Q 1103 2878 1323 2947 
Q 1544 3016 1772 3016 
Q 2334 3016 2642 2625 
Q 2950 2234 2950 1503 
Q 2950 756 2614 346 
Q 2278 -63 1644 -63 
Q 1291 -63 972 6 
Q 991 -219 991 -347 
L 991 -1141 
L 1503 -1216 
L 1503 -1363 
L 103 -1363 
L 103 -1216 
L 475 -1141 
L 475 2719 
z
M 2388 1503 
Q 2388 2103 2192 2395 
Q 1997 2688 1600 2688 
Q 1234 2688 991 2584 
L 991 238 
Q 1269 184 1600 184 
Q 2388 184 2388 1503 
z
" transform="scale(0.015625)"/>
        <path id="LiberationSerif-48" d="M 813 1478 
L 813 1422 
Q 813 991 908 752 
Q 1003 513 1201 388 
Q 1400 263 1722 263 
Q 1891 263 2122 291 
Q 2353 319 2503 353 
L 2503 178 
Q 2353 81 2095 9 
Q 1838 -63 1569 -63 
Q 884 -63 567 306 
Q 250 675 250 1491 
Q 250 2259 572 2637 
Q 894 3016 1491 3016 
Q 2619 3016 2619 1734 
L 2619 1478 
L 813 1478 
z
M 1491 2766 
Q 1166 2766 992 2503 
Q 819 2241 819 1728 
L 2075 1728 
Q 2075 2288 1931 2527 
Q 1788 2766 1491 2766 
z
" transform="scale(0.015625)"/>
       </defs>
       <use xlink:href="#LiberationSerif-2a"/>
       <use xlink:href="#LiberationSerif-55" transform="translate(72.21875 0)"/>
       <use xlink:href="#LiberationSerif-4c" transform="translate(105.515625 0)"/>
       <use xlink:href="#LiberationSerif-53" transform="translate(133.296875 0)"/>
       <use xlink:href="#LiberationSerif-53" transform="translate(183.296875 0)"/>
       <use xlink:href="#LiberationSerif-48" transform="translate(233.296875 0)"/>
       <use xlink:href="#LiberationSerif-55" transform="translate(277.6875 0)"/>
      </g>
     </g>
    </g>
    <g id="xtick_2">
     <g id="line2d_2"/>
     <g id="text_2">
      <!-- UMI Gripper -->
      <g transform="translate(303.046935 212.103232) scale(0.13 -0.13)">
       <defs>
        <path id="LiberationSerif-38" d="M 3622 3944 
L 3059 4025 
L 3059 4191 
L 4488 4191 
L 4488 4025 
L 3950 3944 
L 3950 1441 
Q 3950 688 3536 312 
Q 3122 -63 2334 -63 
Q 1500 -63 1086 314 
Q 672 691 672 1381 
L 672 3944 
L 134 4025 
L 134 4191 
L 1809 4191 
L 1809 4025 
L 1272 3944 
L 1272 1428 
Q 1272 288 2381 288 
Q 2981 288 3301 572 
Q 3622 856 3622 1416 
L 3622 3944 
z
" transform="scale(0.015625)"/>
        <path id="LiberationSerif-30" d="M 2694 0 
L 2584 0 
L 1050 3603 
L 1050 250 
L 1613 166 
L 1613 0 
L 184 0 
L 184 166 
L 722 250 
L 722 3944 
L 184 4025 
L 184 4191 
L 1453 4191 
L 2816 1003 
L 4303 4191 
L 5503 4191 
L 5503 4025 
L 4966 3944 
L 4966 250 
L 5503 166 
L 5503 0 
L 3803 0 
L 3803 166 
L 4366 250 
L 4366 3603 
L 2694 0 
z
" transform="scale(0.015625)"/>
        <path id="LiberationSerif-2c" d="M 1369 250 
L 1906 166 
L 1906 0 
L 231 0 
L 231 166 
L 769 250 
L 769 3944 
L 231 4025 
L 231 4191 
L 1906 4191 
L 1906 4025 
L 1369 3944 
L 1369 250 
z
" transform="scale(0.015625)"/>
        <path id="LiberationSerif-3" transform="scale(0.015625)"/>
       </defs>
       <use xlink:href="#LiberationSerif-38"/>
       <use xlink:href="#LiberationSerif-30" transform="translate(72.21875 0)"/>
       <use xlink:href="#LiberationSerif-2c" transform="translate(161.140625 0)"/>
       <use xlink:href="#LiberationSerif-3" transform="translate(194.4375 0)"/>
       <use xlink:href="#LiberationSerif-2a" transform="translate(219.4375 0)"/>
       <use xlink:href="#LiberationSerif-55" transform="translate(291.65625 0)"/>
       <use xlink:href="#LiberationSerif-4c" transform="translate(324.953125 0)"/>
       <use xlink:href="#LiberationSerif-53" transform="translate(352.734375 0)"/>
       <use xlink:href="#LiberationSerif-53" transform="translate(402.734375 0)"/>
       <use xlink:href="#LiberationSerif-48" transform="translate(452.734375 0)"/>
       <use xlink:href="#LiberationSerif-55" transform="translate(497.125 0)"/>
      </g>
      <!-- (Unseen) -->
      <g transform="translate(313.700841 225.878408) scale(0.13 -0.13)">
       <defs>
        <path id="LiberationSerif-b" d="M 884 1544 
Q 884 731 993 248 
Q 1103 -234 1337 -565 
Q 1572 -897 1925 -1100 
L 1925 -1363 
Q 1306 -1034 957 -645 
Q 609 -256 445 270 
Q 281 797 281 1544 
Q 281 2288 443 2811 
Q 606 3334 953 3721 
Q 1300 4109 1925 4441 
L 1925 4178 
Q 1544 3959 1319 3617 
Q 1094 3275 989 2819 
Q 884 2363 884 1544 
z
" transform="scale(0.015625)"/>
        <path id="LiberationSerif-56" d="M 2259 825 
Q 2259 388 1982 162 
Q 1706 -63 1166 -63 
Q 947 -63 683 -17 
Q 419 28 269 84 
L 269 806 
L 409 806 
L 563 397 
Q 797 184 1172 184 
Q 1778 184 1778 703 
Q 1778 1084 1300 1247 
L 1022 1338 
Q 706 1441 562 1547 
Q 419 1653 341 1808 
Q 263 1963 263 2181 
Q 263 2569 527 2792 
Q 791 3016 1241 3016 
Q 1563 3016 2047 2919 
L 2047 2278 
L 1900 2278 
L 1769 2619 
Q 1603 2766 1247 2766 
Q 994 2766 861 2641 
Q 728 2516 728 2303 
Q 728 2125 848 2003 
Q 969 1881 1213 1800 
Q 1672 1644 1812 1572 
Q 1953 1500 2051 1395 
Q 2150 1291 2204 1156 
Q 2259 1022 2259 825 
z
" transform="scale(0.015625)"/>
        <path id="LiberationSerif-c" d="M 206 -1363 
L 206 -1100 
Q 559 -897 793 -564 
Q 1028 -231 1137 251 
Q 1247 734 1247 1544 
Q 1247 2363 1142 2819 
Q 1038 3275 813 3617 
Q 588 3959 206 4178 
L 206 4441 
Q 831 4106 1178 3720 
Q 1525 3334 1687 2811 
Q 1850 2288 1850 1544 
Q 1850 800 1687 273 
Q 1525 -253 1178 -640 
Q 831 -1028 206 -1363 
z
" transform="scale(0.015625)"/>
       </defs>
       <use xlink:href="#LiberationSerif-b"/>
       <use xlink:href="#LiberationSerif-38" transform="translate(33.296875 0)"/>
       <use xlink:href="#LiberationSerif-51" transform="translate(105.515625 0)"/>
       <use xlink:href="#LiberationSerif-56" transform="translate(155.515625 0)"/>
       <use xlink:href="#LiberationSerif-48" transform="translate(194.4375 0)"/>
       <use xlink:href="#LiberationSerif-48" transform="translate(238.828125 0)"/>
       <use xlink:href="#LiberationSerif-51" transform="translate(283.21875 0)"/>
       <use xlink:href="#LiberationSerif-c" transform="translate(333.21875 0)"/>
      </g>
     </g>
    </g>
    <g id="xtick_3">
     <g id="line2d_3"/>
     <g id="text_3">
      <!-- YAM Arm -->
      <g transform="translate(492.450409 212.103232) scale(0.13 -0.13)">
       <defs>
        <path id="LiberationSerif-3c" d="M 2619 1650 
L 2619 250 
L 3284 166 
L 3284 0 
L 1350 0 
L 1350 166 
L 2016 250 
L 2016 1631 
L 544 3944 
L 72 4025 
L 72 4191 
L 1844 4191 
L 1844 4025 
L 1281 3944 
L 2484 2009 
L 3628 3944 
L 3097 4025 
L 3097 4191 
L 4459 4191 
L 4459 4025 
L 4000 3944 
L 2619 1650 
z
" transform="scale(0.015625)"/>
        <path id="LiberationSerif-24" d="M 1441 166 
L 1441 0 
L 63 0 
L 63 166 
L 538 250 
L 1966 4225 
L 2559 4225 
L 4044 250 
L 4575 166 
L 4575 0 
L 2803 0 
L 2803 166 
L 3366 250 
L 2950 1459 
L 1300 1459 
L 878 250 
L 1441 166 
z
M 2113 3775 
L 1394 1741 
L 2853 1741 
L 2113 3775 
z
" transform="scale(0.015625)"/>
        <path id="LiberationSerif-50" d="M 1019 2700 
Q 1253 2834 1515 2925 
Q 1778 3016 1978 3016 
Q 2194 3016 2376 2934 
Q 2559 2853 2650 2675 
Q 2891 2809 3214 2912 
Q 3538 3016 3750 3016 
Q 4500 3016 4500 2150 
L 4500 219 
L 4878 141 
L 4878 0 
L 3544 0 
L 3544 141 
L 3981 219 
L 3981 2094 
Q 3981 2631 3481 2631 
Q 3400 2631 3292 2618 
Q 3184 2606 3076 2590 
Q 2969 2575 2870 2554 
Q 2772 2534 2706 2522 
Q 2759 2353 2759 2150 
L 2759 219 
L 3200 141 
L 3200 0 
L 1806 0 
L 1806 141 
L 2241 219 
L 2241 2094 
Q 2241 2353 2108 2492 
Q 1975 2631 1709 2631 
Q 1434 2631 1025 2541 
L 1025 219 
L 1466 141 
L 1466 0 
L 134 0 
L 134 141 
L 506 219 
L 506 2719 
L 134 2797 
L 134 2938 
L 994 2938 
L 1019 2700 
z
" transform="scale(0.015625)"/>
       </defs>
       <use xlink:href="#LiberationSerif-3c"/>
       <use xlink:href="#LiberationSerif-24" transform="translate(61.140625 0)"/>
       <use xlink:href="#LiberationSerif-30" transform="translate(133.359375 0)"/>
       <use xlink:href="#LiberationSerif-3" transform="translate(222.28125 0)"/>
       <use xlink:href="#LiberationSerif-24" transform="translate(241.765625 0)"/>
       <use xlink:href="#LiberationSerif-55" transform="translate(313.984375 0)"/>
       <use xlink:href="#LiberationSerif-50" transform="translate(347.28125 0)"/>
      </g>
      <!-- (Unseen) -->
      <g transform="translate(496.255956 225.878408) scale(0.13 -0.13)">
       <use xlink:href="#LiberationSerif-b"/>
       <use xlink:href="#LiberationSerif-38" transform="translate(33.296875 0)"/>
       <use xlink:href="#LiberationSerif-51" transform="translate(105.515625 0)"/>
       <use xlink:href="#LiberationSerif-56" transform="translate(155.515625 0)"/>
       <use xlink:href="#LiberationSerif-48" transform="translate(194.4375 0)"/>
       <use xlink:href="#LiberationSerif-48" transform="translate(238.828125 0)"/>
       <use xlink:href="#LiberationSerif-51" transform="translate(283.21875 0)"/>
       <use xlink:href="#LiberationSerif-c" transform="translate(333.21875 0)"/>
      </g>
     </g>
    </g>
    <g id="xtick_4">
     <g id="line2d_4"/>
     <g id="text_4">
      <!-- Sharpa Hand -->
      <g transform="translate(668.88029 212.110342) scale(0.13 -0.13)">
       <defs>
        <path id="LiberationSerif-36" d="M 434 1128 
L 638 1128 
L 747 563 
Q 863 416 1145 303 
Q 1428 191 1703 191 
Q 2141 191 2386 414 
Q 2631 638 2631 1031 
Q 2631 1256 2536 1403 
Q 2441 1550 2286 1651 
Q 2131 1753 1934 1823 
Q 1738 1894 1530 1966 
Q 1322 2038 1125 2125 
Q 928 2213 773 2347 
Q 619 2481 523 2679 
Q 428 2878 428 3169 
Q 428 3669 803 3953 
Q 1178 4238 1844 4238 
Q 2350 4238 2944 4103 
L 2944 3231 
L 2741 3231 
L 2631 3744 
Q 2313 3975 1844 3975 
Q 1425 3975 1189 3804 
Q 953 3634 953 3334 
Q 953 3131 1048 2997 
Q 1144 2863 1298 2767 
Q 1453 2672 1651 2603 
Q 1850 2534 2058 2461 
Q 2266 2388 2464 2295 
Q 2663 2203 2817 2061 
Q 2972 1919 3067 1714 
Q 3163 1509 3163 1209 
Q 3163 603 2791 270 
Q 2419 -63 1719 -63 
Q 1381 -63 1040 -3 
Q 700 56 434 159 
L 434 1128 
z
" transform="scale(0.015625)"/>
        <path id="LiberationSerif-4b" d="M 1019 3169 
Q 1019 2844 997 2700 
Q 1222 2828 1508 2922 
Q 1794 3016 1991 3016 
Q 2372 3016 2565 2794 
Q 2759 2572 2759 2150 
L 2759 219 
L 3116 141 
L 3116 0 
L 1850 0 
L 1850 141 
L 2241 219 
L 2241 2113 
Q 2241 2650 1722 2650 
Q 1428 2650 1019 2559 
L 1019 219 
L 1416 141 
L 1416 0 
L 128 0 
L 128 141 
L 500 219 
L 500 4225 
L 63 4300 
L 63 4441 
L 1019 4441 
L 1019 3169 
z
" transform="scale(0.015625)"/>
        <path id="LiberationSerif-2b" d="M 184 0 
L 184 166 
L 722 250 
L 722 3944 
L 184 4025 
L 184 4191 
L 1863 4191 
L 1863 4025 
L 1325 3944 
L 1325 2297 
L 3297 2297 
L 3297 3944 
L 2759 4025 
L 2759 4191 
L 4434 4191 
L 4434 4025 
L 3897 3944 
L 3897 250 
L 4434 166 
L 4434 0 
L 2759 0 
L 2759 166 
L 3297 250 
L 3297 2016 
L 1325 2016 
L 1325 250 
L 1863 166 
L 1863 0 
L 184 0 
z
" transform="scale(0.015625)"/>
        <path id="LiberationSerif-47" d="M 2259 219 
Q 1906 -63 1434 -63 
Q 231 -63 231 1441 
Q 231 2213 572 2614 
Q 913 3016 1575 3016 
Q 1913 3016 2259 2944 
Q 2241 3047 2241 3463 
L 2241 4225 
L 1747 4300 
L 1747 4441 
L 2759 4441 
L 2759 219 
L 3122 141 
L 3122 0 
L 2297 0 
L 2259 219 
z
M 794 1441 
Q 794 847 994 555 
Q 1194 263 1606 263 
Q 1959 263 2241 384 
L 2241 2706 
Q 1963 2759 1606 2759 
Q 794 2759 794 1441 
z
" transform="scale(0.015625)"/>
       </defs>
       <use xlink:href="#LiberationSerif-36"/>
       <use xlink:href="#LiberationSerif-4b" transform="translate(55.609375 0)"/>
       <use xlink:href="#LiberationSerif-44" transform="translate(105.609375 0)"/>
       <use xlink:href="#LiberationSerif-55" transform="translate(150 0)"/>
       <use xlink:href="#LiberationSerif-53" transform="translate(183.296875 0)"/>
       <use xlink:href="#LiberationSerif-44" transform="translate(233.296875 0)"/>
       <use xlink:href="#LiberationSerif-3" transform="translate(277.6875 0)"/>
       <use xlink:href="#LiberationSerif-2b" transform="translate(302.6875 0)"/>
       <use xlink:href="#LiberationSerif-44" transform="translate(374.90625 0)"/>
       <use xlink:href="#LiberationSerif-51" transform="translate(419.296875 0)"/>
       <use xlink:href="#LiberationSerif-47" transform="translate(469.296875 0)"/>
      </g>
      <!-- (Unseen) -->
      <g transform="translate(678.811071 225.885518) scale(0.13 -0.13)">
       <use xlink:href="#LiberationSerif-b"/>
       <use xlink:href="#LiberationSerif-38" transform="translate(33.296875 0)"/>
       <use xlink:href="#LiberationSerif-51" transform="translate(105.515625 0)"/>
       <use xlink:href="#LiberationSerif-56" transform="translate(155.515625 0)"/>
       <use xlink:href="#LiberationSerif-48" transform="translate(194.4375 0)"/>
       <use xlink:href="#LiberationSerif-48" transform="translate(238.828125 0)"/>
       <use xlink:href="#LiberationSerif-51" transform="translate(283.21875 0)"/>
       <use xlink:href="#LiberationSerif-c" transform="translate(333.21875 0)"/>
      </g>
     </g>
    </g>
   </g>
   <g id="matplotlib.axis_2">
    <g id="ytick_1">
     <g id="line2d_5">
      <path d="M 45.436172 194.115195 
L 812.167656 194.115195 
" clip-path="url(#pdbad7bdf43)" style="fill: none; stroke-dasharray: 0.8,1.32; stroke-dashoffset: 0; stroke: #cfcfcf; stroke-width: 0.8"/>
     </g>
     <g id="line2d_6"/>
     <g id="text_5">
      <!-- 0 -->
      <g transform="translate(35.936172 198.275352) scale(0.12 -0.12)">
       <defs>
        <path id="LiberationSerif-13" d="M 2956 2113 
Q 2956 -63 1581 -63 
Q 919 -63 581 493 
Q 244 1050 244 2113 
Q 244 3153 581 3704 
Q 919 4256 1606 4256 
Q 2269 4256 2612 3711 
Q 2956 3166 2956 2113 
z
M 2381 2113 
Q 2381 3119 2190 3562 
Q 2000 4006 1581 4006 
Q 1175 4006 997 3587 
Q 819 3169 819 2113 
Q 819 1050 1000 617 
Q 1181 184 1581 184 
Q 1994 184 2187 639 
Q 2381 1094 2381 2113 
z
" transform="scale(0.015625)"/>
       </defs>
       <use xlink:href="#LiberationSerif-13"/>
      </g>
     </g>
    </g>
    <g id="ytick_2">
     <g id="line2d_7">
      <path d="M 45.436172 155.711396 
L 812.167656 155.711396 
" clip-path="url(#pdbad7bdf43)" style="fill: none; stroke-dasharray: 0.8,1.32; stroke-dashoffset: 0; stroke: #cfcfcf; stroke-width: 0.8"/>
     </g>
     <g id="line2d_8"/>
     <g id="text_6">
      <!-- 25 -->
      <g transform="translate(29.936172 159.871553) scale(0.12 -0.12)">
       <defs>
        <path id="LiberationSerif-15" d="M 2847 0 
L 281 0 
L 281 459 
L 863 988 
Q 1422 1478 1684 1781 
Q 1947 2084 2061 2406 
Q 2175 2728 2175 3144 
Q 2175 3550 1990 3762 
Q 1806 3975 1388 3975 
Q 1222 3975 1047 3929 
Q 872 3884 738 3809 
L 628 3297 
L 422 3297 
L 422 4103 
Q 991 4238 1388 4238 
Q 2075 4238 2420 3952 
Q 2766 3666 2766 3144 
Q 2766 2794 2630 2483 
Q 2494 2172 2212 1864 
Q 1931 1556 1281 1003 
Q 1003 766 691 481 
L 2847 481 
L 2847 0 
z
" transform="scale(0.015625)"/>
        <path id="LiberationSerif-18" d="M 1516 2450 
Q 2241 2450 2595 2153 
Q 2950 1856 2950 1247 
Q 2950 616 2565 276 
Q 2181 -63 1466 -63 
Q 872 -63 406 72 
L 372 953 
L 578 953 
L 719 366 
Q 856 291 1048 244 
Q 1241 197 1416 197 
Q 1909 197 2142 430 
Q 2375 663 2375 1216 
Q 2375 1603 2275 1801 
Q 2175 2000 1956 2094 
Q 1738 2188 1369 2188 
Q 1084 2188 813 2113 
L 513 2113 
L 513 4191 
L 2638 4191 
L 2638 3713 
L 794 3713 
L 794 2375 
Q 1131 2450 1516 2450 
z
" transform="scale(0.015625)"/>
       </defs>
       <use xlink:href="#LiberationSerif-15"/>
       <use xlink:href="#LiberationSerif-18" transform="translate(50 0)"/>
      </g>
     </g>
    </g>
    <g id="ytick_3">
     <g id="line2d_9">
      <path d="M 45.436172 117.307598 
L 812.167656 117.307598 
" clip-path="url(#pdbad7bdf43)" style="fill: none; stroke-dasharray: 0.8,1.32; stroke-dashoffset: 0; stroke: #cfcfcf; stroke-width: 0.8"/>
     </g>
     <g id="line2d_10"/>
     <g id="text_7">
      <!-- 50 -->
      <g transform="translate(29.936172 121.467754) scale(0.12 -0.12)">
       <use xlink:href="#LiberationSerif-18"/>
       <use xlink:href="#LiberationSerif-13" transform="translate(50 0)"/>
      </g>
     </g>
    </g>
    <g id="ytick_4">
     <g id="line2d_11">
      <path d="M 45.436172 78.903799 
L 812.167656 78.903799 
" clip-path="url(#pdbad7bdf43)" style="fill: none; stroke-dasharray: 0.8,1.32; stroke-dashoffset: 0; stroke: #cfcfcf; stroke-width: 0.8"/>
     </g>
     <g id="line2d_12"/>
     <g id="text_8">
      <!-- 75 -->
      <g transform="translate(29.936172 83.063955) scale(0.12 -0.12)">
       <defs>
        <path id="LiberationSerif-1a" d="M 628 3200 
L 422 3200 
L 422 4191 
L 3016 4191 
L 3016 3950 
L 1147 0 
L 744 0 
L 2578 3713 
L 738 3713 
L 628 3200 
z
" transform="scale(0.015625)"/>
       </defs>
       <use xlink:href="#LiberationSerif-1a"/>
       <use xlink:href="#LiberationSerif-18" transform="translate(50 0)"/>
      </g>
     </g>
    </g>
    <g id="ytick_5">
     <g id="line2d_13">
      <path d="M 45.436172 40.5 
L 812.167656 40.5 
" clip-path="url(#pdbad7bdf43)" style="fill: none; stroke-dasharray: 0.8,1.32; stroke-dashoffset: 0; stroke: #cfcfcf; stroke-width: 0.8"/>
     </g>
     <g id="line2d_14"/>
     <g id="text_9">
      <!-- 100 -->
      <g transform="translate(23.936172 44.660156) scale(0.12 -0.12)">
       <defs>
        <path id="LiberationSerif-14" d="M 1959 250 
L 2816 166 
L 2816 0 
L 563 0 
L 563 166 
L 1422 250 
L 1422 3669 
L 575 3366 
L 575 3531 
L 1797 4225 
L 1959 4225 
L 1959 250 
z
" transform="scale(0.015625)"/>
       </defs>
       <use xlink:href="#LiberationSerif-14"/>
       <use xlink:href="#LiberationSerif-13" transform="translate(50 0)"/>
       <use xlink:href="#LiberationSerif-13" transform="translate(100 0)"/>
      </g>
     </g>
    </g>
    <g id="text_10">
     <!-- Avg. Progression (%) -->
     <g transform="translate(16.914688 177.641035) rotate(-90) scale(0.14 -0.14)">
      <defs>
       <path id="LiberationSerif-59" d="M 1741 -63 
L 1509 -63 
L 300 2719 
L 0 2797 
L 0 2938 
L 1369 2938 
L 1369 2797 
L 903 2713 
L 1759 684 
L 2578 2719 
L 2113 2797 
L 2113 2938 
L 3200 2938 
L 3200 2797 
L 2919 2731 
L 1741 -63 
z
" transform="scale(0.015625)"/>
       <path id="LiberationSerif-11" d="M 1178 288 
Q 1178 134 1070 21 
Q 963 -91 800 -91 
Q 638 -91 530 21 
Q 422 134 422 288 
Q 422 447 531 556 
Q 641 666 800 666 
Q 959 666 1068 556 
Q 1178 447 1178 288 
z
" transform="scale(0.015625)"/>
       <path id="LiberationSerif-33" d="M 2681 2950 
Q 2681 3466 2440 3687 
Q 2200 3909 1631 3909 
L 1325 3909 
L 1325 1925 
L 1650 1925 
Q 2178 1925 2429 2165 
Q 2681 2406 2681 2950 
z
M 1325 1644 
L 1325 250 
L 1991 166 
L 1991 0 
L 225 0 
L 225 166 
L 722 250 
L 722 3944 
L 184 4025 
L 184 4191 
L 1766 4191 
Q 3303 4191 3303 2956 
Q 3303 2313 2914 1978 
Q 2525 1644 1797 1644 
L 1325 1644 
z
" transform="scale(0.015625)"/>
       <path id="LiberationSerif-52" d="M 2956 1484 
Q 2956 -63 1581 -63 
Q 919 -63 581 334 
Q 244 731 244 1484 
Q 244 2228 581 2622 
Q 919 3016 1606 3016 
Q 2275 3016 2615 2630 
Q 2956 2244 2956 1484 
z
M 2394 1484 
Q 2394 2159 2197 2462 
Q 2000 2766 1581 2766 
Q 1172 2766 989 2475 
Q 806 2184 806 1484 
Q 806 775 992 479 
Q 1178 184 1581 184 
Q 1994 184 2194 490 
Q 2394 797 2394 1484 
z
" transform="scale(0.015625)"/>
       <path id="LiberationSerif-8" d="M 1375 -63 
L 1031 -63 
L 3994 4256 
L 4341 4256 
L 1375 -63 
z
M 2253 3109 
Q 2253 1947 1222 1947 
Q 719 1947 469 2244 
Q 219 2541 219 3109 
Q 219 4256 1241 4256 
Q 1738 4256 1995 3968 
Q 2253 3681 2253 3109 
z
M 1766 3109 
Q 1766 3584 1636 3804 
Q 1506 4025 1222 4025 
Q 950 4025 826 3817 
Q 703 3609 703 3109 
Q 703 2597 828 2386 
Q 953 2175 1222 2175 
Q 1503 2175 1634 2398 
Q 1766 2622 1766 3109 
z
M 5113 1081 
Q 5113 -84 4084 -84 
Q 3581 -84 3329 212 
Q 3078 509 3078 1081 
Q 3078 1638 3331 1933 
Q 3584 2228 4103 2228 
Q 4600 2228 4856 1940 
Q 5113 1653 5113 1081 
z
M 4628 1081 
Q 4628 1556 4498 1776 
Q 4369 1997 4084 1997 
Q 3813 1997 3689 1789 
Q 3566 1581 3566 1081 
Q 3566 569 3691 358 
Q 3816 147 4084 147 
Q 4366 147 4497 370 
Q 4628 594 4628 1081 
z
" transform="scale(0.015625)"/>
      </defs>
      <use xlink:href="#LiberationSerif-24"/>
      <use xlink:href="#LiberationSerif-59" transform="translate(64.796875 0)"/>
      <use xlink:href="#LiberationSerif-4a" transform="translate(114.796875 0)"/>
      <use xlink:href="#LiberationSerif-11" transform="translate(164.796875 0)"/>
      <use xlink:href="#LiberationSerif-3" transform="translate(189.796875 0)"/>
      <use xlink:href="#LiberationSerif-33" transform="translate(214.796875 0)"/>
      <use xlink:href="#LiberationSerif-55" transform="translate(270.40625 0)"/>
      <use xlink:href="#LiberationSerif-52" transform="translate(303.703125 0)"/>
      <use xlink:href="#LiberationSerif-4a" transform="translate(353.703125 0)"/>
      <use xlink:href="#LiberationSerif-55" transform="translate(403.703125 0)"/>
      <use xlink:href="#LiberationSerif-48" transform="translate(437 0)"/>
      <use xlink:href="#LiberationSerif-56" transform="translate(481.390625 0)"/>
      <use xlink:href="#LiberationSerif-56" transform="translate(520.3125 0)"/>
      <use xlink:href="#LiberationSerif-4c" transform="translate(559.234375 0)"/>
      <use xlink:href="#LiberationSerif-52" transform="translate(587.015625 0)"/>
      <use xlink:href="#LiberationSerif-51" transform="translate(637.015625 0)"/>
      <use xlink:href="#LiberationSerif-3" transform="translate(687.015625 0)"/>
      <use xlink:href="#LiberationSerif-b" transform="translate(712.015625 0)"/>
      <use xlink:href="#LiberationSerif-8" transform="translate(745.3125 0)"/>
      <use xlink:href="#LiberationSerif-c" transform="translate(828.609375 0)"/>
     </g>
    </g>
   </g>
   <g id="line2d_15">
    <path d="M 246.246799 194.115195 
L 246.246799 40.5 
" clip-path="url(#pdbad7bdf43)" style="fill: none; stroke-dasharray: 12,8; stroke-dashoffset: 0; stroke: #bfbfbf; stroke-width: 2"/>
   </g>
   <g id="patch_3">
    <path d="M 45.436172 194.115195 
L 45.436172 40.5 
" style="fill: none; stroke: #333333; stroke-width: 0.8; stroke-linejoin: miter; stroke-linecap: square"/>
   </g>
   <g id="patch_4">
    <path d="M 45.436172 194.115195 
L 812.167656 194.115195 
" style="fill: none; stroke: #333333; stroke-width: 0.8; stroke-linejoin: miter; stroke-linecap: square"/>
   </g>
   <g id="patch_5">
    <path d="M 112.108475 194.115195 
L 140.682319 194.115195 
L 140.682319 58.933823 
L 112.108475 58.933823 
z
" clip-path="url(#pdbad7bdf43)" style="fill: #e2783c; stroke: #33414f; stroke-width: 1.2; stroke-linejoin: miter"/>
   </g>
   <g id="patch_6">
    <path d="M 294.66359 194.115195 
L 323.237434 194.115195 
L 323.237434 63.388664 
L 294.66359 63.388664 
z
" clip-path="url(#pdbad7bdf43)" style="fill: #e2783c; stroke: #33414f; stroke-width: 1.2; stroke-linejoin: miter"/>
   </g>
   <g id="patch_7">
    <path d="M 477.218706 194.115195 
L 505.79255 194.115195 
L 505.79255 61.545282 
L 477.218706 61.545282 
z
" clip-path="url(#pdbad7bdf43)" style="fill: #e2783c; stroke: #33414f; stroke-width: 1.2; stroke-linejoin: miter"/>
   </g>
   <g id="patch_8">
    <path d="M 659.773821 194.115195 
L 688.347665 194.115195 
L 688.347665 68.457966 
L 659.773821 68.457966 
z
" clip-path="url(#pdbad7bdf43)" style="fill: #e2783c; stroke: #33414f; stroke-width: 1.2; stroke-linejoin: miter"/>
   </g>
   <g id="text_11">
    <!-- 88 -->
    <g transform="translate(120.395397 54.34398) scale(0.12 -0.12)">
     <defs>
      <path id="LiberationSerif-1b" d="M 2828 3169 
Q 2828 2825 2661 2586 
Q 2494 2347 2209 2222 
Q 2566 2091 2761 1811 
Q 2956 1531 2956 1131 
Q 2956 538 2622 237 
Q 2288 -63 1581 -63 
Q 244 -63 244 1131 
Q 244 1547 444 1820 
Q 644 2094 984 2222 
Q 713 2347 542 2584 
Q 372 2822 372 3169 
Q 372 3688 689 3972 
Q 1006 4256 1606 4256 
Q 2188 4256 2508 3973 
Q 2828 3691 2828 3169 
z
M 2394 1131 
Q 2394 1631 2198 1856 
Q 2003 2081 1581 2081 
Q 1169 2081 987 1867 
Q 806 1653 806 1131 
Q 806 603 990 393 
Q 1175 184 1581 184 
Q 1997 184 2195 401 
Q 2394 619 2394 1131 
z
M 2266 3169 
Q 2266 3600 2097 3803 
Q 1928 4006 1588 4006 
Q 1256 4006 1095 3809 
Q 934 3613 934 3169 
Q 934 2734 1090 2545 
Q 1247 2356 1588 2356 
Q 1938 2356 2102 2548 
Q 2266 2741 2266 3169 
z
" transform="scale(0.015625)"/>
     </defs>
     <use xlink:href="#LiberationSerif-1b"/>
     <use xlink:href="#LiberationSerif-1b" transform="translate(50 0)"/>
    </g>
   </g>
   <g id="text_12">
    <!-- 85 -->
    <g transform="translate(302.950512 58.79882) scale(0.12 -0.12)">
     <use xlink:href="#LiberationSerif-1b"/>
     <use xlink:href="#LiberationSerif-18" transform="translate(50 0)"/>
    </g>
   </g>
   <g id="text_13">
    <!-- 86 -->
    <g transform="translate(485.505628 56.955438) scale(0.12 -0.12)">
     <defs>
      <path id="LiberationSerif-19" d="M 3009 1300 
Q 3009 647 2679 292 
Q 2350 -63 1728 -63 
Q 1022 -63 648 487 
Q 275 1038 275 2069 
Q 275 2744 472 3234 
Q 669 3725 1023 3981 
Q 1378 4238 1844 4238 
Q 2300 4238 2753 4128 
L 2753 3406 
L 2547 3406 
L 2438 3834 
Q 2334 3891 2159 3933 
Q 1984 3975 1844 3975 
Q 1388 3975 1133 3533 
Q 878 3091 853 2241 
Q 1363 2509 1875 2509 
Q 2428 2509 2718 2198 
Q 3009 1888 3009 1300 
z
M 1716 184 
Q 2094 184 2262 429 
Q 2431 675 2431 1241 
Q 2431 1753 2270 1981 
Q 2109 2209 1759 2209 
Q 1331 2209 850 2053 
Q 850 1100 1065 642 
Q 1281 184 1716 184 
z
" transform="scale(0.015625)"/>
     </defs>
     <use xlink:href="#LiberationSerif-1b"/>
     <use xlink:href="#LiberationSerif-19" transform="translate(50 0)"/>
    </g>
   </g>
   <g id="text_14">
    <!-- 82 -->
    <g transform="translate(668.060743 63.868122) scale(0.12 -0.12)">
     <use xlink:href="#LiberationSerif-1b"/>
     <use xlink:href="#LiberationSerif-15" transform="translate(50 0)"/>
    </g>
   </g>
   <g id="patch_9">
    <path d="M 140.682319 194.115195 
L 169.256163 194.115195 
L 169.256163 56.936826 
L 140.682319 56.936826 
z
" clip-path="url(#pdbad7bdf43)" style="fill: #aec4d6; stroke: #33414f; stroke-width: 1.2; stroke-linejoin: miter"/>
   </g>
   <g id="patch_10">
    <path d="M 323.237434 194.115195 
L 351.811278 194.115195 
L 351.811278 88.120711 
L 323.237434 88.120711 
z
" clip-path="url(#pdbad7bdf43)" style="fill: #aec4d6; stroke: #33414f; stroke-width: 1.2; stroke-linejoin: miter"/>
   </g>
   <g id="patch_11">
    <path d="M 505.79255 194.115195 
L 534.366394 194.115195 
L 534.366394 87.352635 
L 505.79255 87.352635 
z
" clip-path="url(#pdbad7bdf43)" style="fill: #aec4d6; stroke: #33414f; stroke-width: 1.2; stroke-linejoin: miter"/>
   </g>
   <g id="patch_12">
    <path d="M 688.347665 194.115195 
L 716.921509 194.115195 
L 716.921509 110.548529 
L 688.347665 110.548529 
z
" clip-path="url(#pdbad7bdf43)" style="fill: #aec4d6; stroke: #33414f; stroke-width: 1.2; stroke-linejoin: miter"/>
   </g>
   <g id="text_15">
    <!-- 89 -->
    <g transform="translate(148.969241 52.346982) scale(0.12 -0.12)">
     <defs>
      <path id="LiberationSerif-1c" d="M 206 2913 
Q 206 3544 559 3891 
Q 913 4238 1556 4238 
Q 2272 4238 2605 3722 
Q 2938 3206 2938 2106 
Q 2938 1053 2509 495 
Q 2081 -63 1306 -63 
Q 797 -63 372 44 
L 372 769 
L 575 769 
L 684 319 
Q 784 272 953 234 
Q 1122 197 1294 197 
Q 1794 197 2062 636 
Q 2331 1075 2359 1928 
Q 1884 1663 1394 1663 
Q 841 1663 523 1992 
Q 206 2322 206 2913 
z
M 1563 3988 
Q 781 3988 781 2900 
Q 781 2422 968 2194 
Q 1156 1966 1550 1966 
Q 1953 1966 2363 2131 
Q 2363 3091 2173 3539 
Q 1984 3988 1563 3988 
z
" transform="scale(0.015625)"/>
     </defs>
     <use xlink:href="#LiberationSerif-1b"/>
     <use xlink:href="#LiberationSerif-1c" transform="translate(50 0)"/>
    </g>
   </g>
   <g id="text_16">
    <!-- 69 -->
    <g transform="translate(331.524356 83.530867) scale(0.12 -0.12)">
     <use xlink:href="#LiberationSerif-19"/>
     <use xlink:href="#LiberationSerif-1c" transform="translate(50 0)"/>
    </g>
   </g>
   <g id="text_17">
    <!-- 70 -->
    <g transform="translate(514.079472 82.762791) scale(0.12 -0.12)">
     <use xlink:href="#LiberationSerif-1a"/>
     <use xlink:href="#LiberationSerif-13" transform="translate(50 0)"/>
    </g>
   </g>
   <g id="text_18">
    <!-- 54 -->
    <g transform="translate(696.634587 105.958685) scale(0.12 -0.12)">
     <defs>
      <path id="LiberationSerif-17" d="M 2531 922 
L 2531 0 
L 1994 0 
L 1994 922 
L 125 922 
L 125 1338 
L 2172 4213 
L 2531 4213 
L 2531 1369 
L 3100 1369 
L 3100 922 
L 2531 922 
z
M 1994 3478 
L 1978 3478 
L 478 1369 
L 1994 1369 
L 1994 3478 
z
" transform="scale(0.015625)"/>
     </defs>
     <use xlink:href="#LiberationSerif-18"/>
     <use xlink:href="#LiberationSerif-17" transform="translate(50 0)"/>
    </g>
   </g>
   <g id="patch_13">
    <path d="M 169.256163 194.115195 
L 197.830007 194.115195 
L 197.830007 59.087439 
L 169.256163 59.087439 
z
" clip-path="url(#pdbad7bdf43)" style="fill: #46637f; stroke: #33414f; stroke-width: 1.2; stroke-linejoin: miter"/>
   </g>
   <g id="patch_14">
    <path d="M 351.811278 194.115195 
L 380.385123 194.115195 
L 380.385123 100.563541 
L 351.811278 100.563541 
z
" clip-path="url(#pdbad7bdf43)" style="fill: #46637f; stroke: #33414f; stroke-width: 1.2; stroke-linejoin: miter"/>
   </g>
   <g id="patch_15">
    <path d="M 534.366394 194.115195 
L 562.940238 194.115195 
L 562.940238 88.888787 
L 534.366394 88.888787 
z
" clip-path="url(#pdbad7bdf43)" style="fill: #46637f; stroke: #33414f; stroke-width: 1.2; stroke-linejoin: miter"/>
   </g>
   <g id="patch_16">
    <path d="M 716.921509 194.115195 
L 745.495353 194.115195 
L 745.495353 101.638848 
L 716.921509 101.638848 
z
" clip-path="url(#pdbad7bdf43)" style="fill: #46637f; stroke: #33414f; stroke-width: 1.2; stroke-linejoin: miter"/>
   </g>
   <g id="text_19">
    <!-- 88 -->
    <g transform="translate(177.543085 54.497595) scale(0.12 -0.12)">
     <use xlink:href="#LiberationSerif-1b"/>
     <use xlink:href="#LiberationSerif-1b" transform="translate(50 0)"/>
    </g>
   </g>
   <g id="text_20">
    <!-- 61 -->
    <g transform="translate(360.098201 95.973698) scale(0.12 -0.12)">
     <use xlink:href="#LiberationSerif-19"/>
     <use xlink:href="#LiberationSerif-14" transform="translate(50 0)"/>
    </g>
   </g>
   <g id="text_21">
    <!-- 69 -->
    <g transform="translate(542.653316 84.298943) scale(0.12 -0.12)">
     <use xlink:href="#LiberationSerif-19"/>
     <use xlink:href="#LiberationSerif-1c" transform="translate(50 0)"/>
    </g>
   </g>
   <g id="text_22">
    <!-- 60 -->
    <g transform="translate(725.208431 97.049004) scale(0.12 -0.12)">
     <use xlink:href="#LiberationSerif-19"/>
     <use xlink:href="#LiberationSerif-13" transform="translate(50 0)"/>
    </g>
   </g>
   <g id="legend_1">
    <g id="patch_17">
     <path d="M 187.607773 23.7 
L 207.107773 23.7 
L 207.107773 13.2 
L 187.607773 13.2 
z
" style="fill: #e2783c; stroke: #33414f; stroke-width: 1.2; stroke-linejoin: miter"/>
    </g>
    <g id="text_23">
     <!-- Cloak-VLA (Ours) -->
     <g transform="translate(216.107773 23.7) scale(0.15 -0.15)">
      <defs>
       <path id="LiberationSerif-26" d="M 2419 -63 
Q 1400 -63 831 492 
Q 263 1047 263 2047 
Q 263 3128 809 3683 
Q 1356 4238 2431 4238 
Q 3084 4238 3834 4078 
L 3853 3163 
L 3647 3163 
L 3553 3706 
Q 3334 3841 3045 3914 
Q 2756 3988 2456 3988 
Q 1653 3988 1284 3516 
Q 916 3044 916 2053 
Q 916 1141 1302 659 
Q 1688 178 2425 178 
Q 2781 178 3097 264 
Q 3413 350 3597 494 
L 3713 1119 
L 3916 1119 
L 3897 134 
Q 3209 -63 2419 -63 
z
" transform="scale(0.015625)"/>
       <path id="LiberationSerif-4e" d="M 1075 1416 
L 2278 2713 
L 1972 2797 
L 1972 2938 
L 3009 2938 
L 3009 2797 
L 2644 2725 
L 1806 1869 
L 2881 213 
L 3200 141 
L 3200 0 
L 1997 0 
L 1997 141 
L 2266 219 
L 1459 1484 
L 1075 1063 
L 1075 219 
L 1388 141 
L 1388 0 
L 184 0 
L 184 141 
L 556 219 
L 556 4225 
L 122 4300 
L 122 4441 
L 1075 4441 
L 1075 1416 
z
" transform="scale(0.015625)"/>
       <path id="LiberationSerif-10" d="M 238 1269 
L 238 1747 
L 1900 1747 
L 1900 1269 
L 238 1269 
z
" transform="scale(0.015625)"/>
       <path id="LiberationSerif-39" d="M 4550 4191 
L 4550 4025 
L 4091 3944 
L 2406 -97 
L 2247 -97 
L 544 3944 
L 72 4025 
L 72 4191 
L 1766 4191 
L 1766 4025 
L 1203 3944 
L 2472 859 
L 3738 3944 
L 3188 4025 
L 3188 4191 
L 4550 4191 
z
" transform="scale(0.015625)"/>
       <path id="LiberationSerif-2f" d="M 1972 4025 
L 1325 3944 
L 1325 269 
L 2150 269 
Q 2816 269 3128 331 
L 3322 1203 
L 3525 1203 
L 3469 0 
L 184 0 
L 184 166 
L 722 250 
L 722 3944 
L 184 4025 
L 184 4191 
L 1972 4191 
L 1972 4025 
z
" transform="scale(0.015625)"/>
       <path id="LiberationSerif-58" d="M 978 838 
Q 978 300 1478 300 
Q 1866 300 2203 397 
L 2203 2719 
L 1759 2797 
L 1759 2938 
L 2719 2938 
L 2719 219 
L 3091 141 
L 3091 0 
L 2234 0 
L 2209 238 
Q 1988 116 1697 26 
Q 1406 -63 1209 -63 
Q 459 -63 459 800 
L 459 2719 
L 84 2797 
L 84 2938 
L 978 2938 
L 978 838 
z
" transform="scale(0.015625)"/>
      </defs>
      <use xlink:href="#LiberationSerif-26"/>
      <use xlink:href="#LiberationSerif-4f" transform="translate(66.703125 0)"/>
      <use xlink:href="#LiberationSerif-52" transform="translate(94.484375 0)"/>
      <use xlink:href="#LiberationSerif-44" transform="translate(144.484375 0)"/>
      <use xlink:href="#LiberationSerif-4e" transform="translate(188.875 0)"/>
      <use xlink:href="#LiberationSerif-10" transform="translate(238.875 0)"/>
      <use xlink:href="#LiberationSerif-39" transform="translate(272.171875 0)"/>
      <use xlink:href="#LiberationSerif-2f" transform="translate(344.390625 0)"/>
      <use xlink:href="#LiberationSerif-24" transform="translate(405.46875 0)"/>
      <use xlink:href="#LiberationSerif-3" transform="translate(472.171875 0)"/>
      <use xlink:href="#LiberationSerif-b" transform="translate(497.171875 0)"/>
      <use xlink:href="#LiberationSerif-32" transform="translate(530.46875 0)"/>
      <use xlink:href="#LiberationSerif-58" transform="translate(602.6875 0)"/>
      <use xlink:href="#LiberationSerif-55" transform="translate(652.6875 0)"/>
      <use xlink:href="#LiberationSerif-56" transform="translate(685.984375 0)"/>
      <use xlink:href="#LiberationSerif-c" transform="translate(724.90625 0)"/>
     </g>
    </g>
    <g id="patch_18">
     <path d="M 359.838242 23.7 
L 379.338242 23.7 
L 379.338242 13.2 
L 359.838242 13.2 
z
" style="fill: #aec4d6; stroke: #33414f; stroke-width: 1.2; stroke-linejoin: miter"/>
    </g>
    <g id="text_24">
     <!-- $\pi_{0.5}$-droid + TP retargeting -->
     <g transform="translate(388.338242 23.7) scale(0.15 -0.15)">
      <defs>
       <path id="STIXGeneral-Italic-20f" d="M 3430 2739 
L 3296 2266 
L 2643 2266 
Q 2624 2195 2502 1782 
Q 2381 1370 2297 1072 
Q 2214 774 2214 717 
Q 2214 448 2413 448 
Q 2694 448 2867 838 
L 2970 838 
Q 2886 486 2652 208 
Q 2419 -70 2093 -70 
Q 1901 -70 1808 67 
Q 1715 205 1715 410 
Q 1715 627 1824 922 
L 2310 2266 
L 1645 2266 
Q 1568 2061 1401 1469 
Q 1235 877 1068 512 
Q 902 147 672 -38 
Q 563 -115 442 -115 
Q 314 -115 218 -32 
Q 122 51 122 166 
Q 122 429 314 480 
Q 634 563 774 928 
L 1299 2266 
L 1261 2266 
Q 973 2266 819 2208 
Q 666 2150 474 1914 
L 371 1914 
Q 640 2362 931 2550 
Q 1222 2739 1696 2739 
L 3430 2739 
z
" transform="scale(0.015625)"/>
       <path id="STIXGeneral-Regular-13" d="M 3046 2112 
Q 3046 1683 2963 1302 
Q 2880 922 2717 602 
Q 2554 282 2266 96 
Q 1978 -90 1600 -90 
Q 1210 -90 915 108 
Q 621 307 461 640 
Q 301 973 227 1350 
Q 154 1728 154 2150 
Q 154 2746 301 3222 
Q 448 3699 790 4012 
Q 1133 4326 1626 4326 
Q 2253 4326 2649 3712 
Q 3046 3098 3046 2112 
z
M 2432 2080 
Q 2432 3091 2217 3625 
Q 2003 4160 1587 4160 
Q 1190 4160 979 3622 
Q 768 3085 768 2106 
Q 768 1120 979 598 
Q 1190 77 1600 77 
Q 2003 77 2217 598 
Q 2432 1120 2432 2080 
z
" transform="scale(0.015625)"/>
       <path id="STIXGeneral-Regular-11" d="M 1158 275 
Q 1158 134 1052 32 
Q 947 -70 800 -70 
Q 653 -70 550 32 
Q 448 134 448 281 
Q 448 429 553 534 
Q 659 640 806 640 
Q 947 640 1052 531 
Q 1158 422 1158 275 
z
" transform="scale(0.015625)"/>
       <path id="STIXGeneral-Regular-18" d="M 2803 4358 
L 2573 3814 
Q 2534 3731 2400 3731 
L 1158 3731 
L 902 3187 
Q 1606 3053 1920 2896 
Q 2234 2739 2502 2368 
Q 2726 2061 2726 1555 
Q 2726 1094 2576 780 
Q 2426 467 2099 224 
Q 1664 -90 1011 -90 
Q 646 -90 422 19 
Q 198 128 198 307 
Q 198 550 486 550 
Q 717 550 960 352 
Q 1210 147 1414 147 
Q 1747 147 2012 480 
Q 2278 813 2278 1229 
Q 2278 1843 1850 2189 
Q 1293 2637 486 2637 
Q 410 2637 410 2688 
L 416 2720 
L 1114 4237 
L 2438 4237 
Q 2547 4237 2608 4269 
Q 2669 4301 2746 4403 
L 2803 4358 
z
" transform="scale(0.015625)"/>
       <path id="LiberationSerif-e" d="M 1966 1966 
L 1966 634 
L 1644 634 
L 1644 1966 
L 319 1966 
L 319 2284 
L 1644 2284 
L 1644 3616 
L 1966 3616 
L 1966 2284 
L 3297 2284 
L 3297 1966 
L 1966 1966 
z
" transform="scale(0.015625)"/>
       <path id="LiberationSerif-37" d="M 984 0 
L 984 166 
L 1650 250 
L 1650 3922 
L 1491 3922 
Q 700 3922 409 3859 
L 325 3206 
L 116 3206 
L 116 4191 
L 3803 4191 
L 3803 3206 
L 3591 3206 
L 3506 3859 
Q 3413 3881 3097 3898 
Q 2781 3916 2406 3916 
L 2253 3916 
L 2253 250 
L 2919 166 
L 2919 0 
L 984 0 
z
" transform="scale(0.015625)"/>
       <path id="LiberationSerif-57" d="M 1044 -63 
Q 744 -63 595 115 
Q 447 294 447 616 
L 447 2675 
L 63 2675 
L 63 2816 
L 453 2938 
L 769 3603 
L 966 3603 
L 966 2938 
L 1638 2938 
L 1638 2675 
L 966 2675 
L 966 672 
Q 966 469 1058 366 
Q 1150 263 1300 263 
Q 1481 263 1741 313 
L 1741 109 
Q 1631 34 1425 -14 
Q 1219 -63 1044 -63 
z
" transform="scale(0.015625)"/>
      </defs>
      <use xlink:href="#STIXGeneral-Italic-20f" transform="translate(0 0.609375)"/>
      <use xlink:href="#STIXGeneral-Regular-13" transform="translate(50.399948 -14.390625) scale(0.7)"/>
      <use xlink:href="#STIXGeneral-Regular-11" transform="translate(85.399916 -14.390625) scale(0.7)"/>
      <use xlink:href="#STIXGeneral-Regular-18" transform="translate(102.899895 -14.390625) scale(0.7)"/>
      <use xlink:href="#LiberationSerif-10" transform="translate(142.399863 0.609375)"/>
      <use xlink:href="#LiberationSerif-47" transform="translate(175.700644 0.609375)"/>
      <use xlink:href="#LiberationSerif-55" transform="translate(225.700644 0.609375)"/>
      <use xlink:href="#LiberationSerif-52" transform="translate(259.001425 0.609375)"/>
      <use xlink:href="#LiberationSerif-4c" transform="translate(309.001425 0.609375)"/>
      <use xlink:href="#LiberationSerif-47" transform="translate(336.784628 0.609375)"/>
      <use xlink:href="#LiberationSerif-3" transform="translate(386.784628 0.609375)"/>
      <use xlink:href="#LiberationSerif-e" transform="translate(411.784628 0.609375)"/>
      <use xlink:href="#LiberationSerif-3" transform="translate(468.181113 0.609375)"/>
      <use xlink:href="#LiberationSerif-37" transform="translate(491.181113 0.609375)"/>
      <use xlink:href="#LiberationSerif-33" transform="translate(552.265097 0.609375)"/>
      <use xlink:href="#LiberationSerif-3" transform="translate(603.880331 0.609375)"/>
      <use xlink:href="#LiberationSerif-55" transform="translate(628.880331 0.609375)"/>
      <use xlink:href="#LiberationSerif-48" transform="translate(662.181113 0.609375)"/>
      <use xlink:href="#LiberationSerif-57" transform="translate(706.565878 0.609375)"/>
      <use xlink:href="#LiberationSerif-44" transform="translate(734.349081 0.609375)"/>
      <use xlink:href="#LiberationSerif-55" transform="translate(778.733847 0.609375)"/>
      <use xlink:href="#LiberationSerif-4a" transform="translate(810.034628 0.609375)"/>
      <use xlink:href="#LiberationSerif-48" transform="translate(860.034628 0.609375)"/>
      <use xlink:href="#LiberationSerif-57" transform="translate(904.419394 0.609375)"/>
      <use xlink:href="#LiberationSerif-4c" transform="translate(932.202597 0.609375)"/>
      <use xlink:href="#LiberationSerif-51" transform="translate(959.9858 0.609375)"/>
      <use xlink:href="#LiberationSerif-4a" transform="translate(1009.9858 0.609375)"/>
     </g>
    </g>
    <g id="patch_19">
     <path d="M 577.338242 23.7 
L 596.838242 23.7 
L 596.838242 13.2 
L 577.338242 13.2 
z
" style="fill: #46637f; stroke: #33414f; stroke-width: 1.2; stroke-linejoin: miter"/>
    </g>
    <g id="text_25">
     <!-- LAP-VLA -->
     <g transform="translate(605.838242 23.7) scale(0.15 -0.15)">
      <use xlink:href="#LiberationSerif-2f"/>
      <use xlink:href="#LiberationSerif-24" transform="translate(61.078125 0)"/>
      <use xlink:href="#LiberationSerif-33" transform="translate(133.296875 0)"/>
      <use xlink:href="#LiberationSerif-10" transform="translate(188.90625 0)"/>
      <use xlink:href="#LiberationSerif-39" transform="translate(222.203125 0)"/>
      <use xlink:href="#LiberationSerif-2f" transform="translate(294.421875 0)"/>
      <use xlink:href="#LiberationSerif-24" transform="translate(355.5 0)"/>
     </g>
    </g>
   </g>
  </g>
 </g>
 <defs>
  <clipPath id="pdbad7bdf43">
   <rect x="45.436172" y="40.5" width="766.731484" height="153.615195"/>
  </clipPath>
 </defs>
</svg>
