<?xml version="1.0" encoding="UTF-8"?>
<svg xmlns="http://www.w3.org/2000/svg" xmlns:xlink="http://www.w3.org/1999/xlink" width="821.175375" height="237.516625" viewBox="0 0 821.175375 237.516625">
<defs>
<g>
<g id="glyph-0-0">
<path d="M 5.046875 -9.609375 C 2.328125 -9.609375 0.5 -7.609375 0.5 -4.65625 C 0.5 -1.6875 2.328125 0.296875 5.0625 0.296875 C 6.21875 0.296875 7.21875 -0.046875 7.984375 -0.703125 C 9.015625 -1.5625 9.625 -3.03125 9.625 -4.578125 C 9.625 -7.625 7.8125 -9.609375 5.046875 -9.609375 Z M 5.046875 -8.546875 C 7.09375 -8.546875 8.421875 -7 8.421875 -4.609375 C 8.421875 -2.328125 7.0625 -0.765625 5.0625 -0.765625 C 3.03125 -0.765625 1.703125 -2.328125 1.703125 -4.65625 C 1.703125 -6.984375 3.03125 -8.546875 5.046875 -8.546875 Z M 5.046875 -8.546875 "/>
</g>
<g id="glyph-0-1">
<path d="M 0.890625 -6.796875 L 0.890625 0 L 1.984375 0 L 1.984375 -3.53125 C 2 -5.15625 2.671875 -5.890625 4.15625 -5.84375 L 4.15625 -6.953125 C 3.984375 -6.984375 3.875 -6.984375 3.75 -6.984375 C 3.046875 -6.984375 2.515625 -6.578125 1.890625 -5.5625 L 1.890625 -6.796875 Z M 0.890625 -6.796875 "/>
</g>
<g id="glyph-0-2">
<path d="M 1.953125 -6.796875 L 0.875 -6.796875 L 0.875 0 L 1.953125 0 Z M 1.953125 -9.453125 L 0.859375 -9.453125 L 0.859375 -8.09375 L 1.953125 -8.09375 Z M 1.953125 -9.453125 "/>
</g>
<g id="glyph-0-3">
<path d="M 5.234375 -6.796875 L 5.234375 -5.8125 C 4.6875 -6.625 4.09375 -6.984375 3.25 -6.984375 C 1.59375 -6.984375 0.453125 -5.453125 0.453125 -3.28125 C 0.453125 -2.140625 0.71875 -1.3125 1.3125 -0.625 C 1.8125 -0.03125 2.46875 0.296875 3.171875 0.296875 C 3.984375 0.296875 4.5625 -0.0625 5.140625 -0.921875 L 5.140625 -0.578125 C 5.140625 1.25 4.625 1.921875 3.28125 1.921875 C 2.359375 1.921875 1.875 1.5625 1.78125 0.78125 L 0.671875 0.78125 C 0.78125 2.03125 1.78125 2.828125 3.25 2.828125 C 4.25 2.828125 5.078125 2.5 5.53125 1.953125 C 6.046875 1.328125 6.234375 0.484375 6.234375 -1.109375 L 6.234375 -6.796875 Z M 3.34375 -5.984375 C 4.484375 -5.984375 5.140625 -5.03125 5.140625 -3.3125 C 5.140625 -1.65625 4.46875 -0.703125 3.34375 -0.703125 C 2.234375 -0.703125 1.578125 -1.671875 1.578125 -3.34375 C 1.578125 -5 2.234375 -5.984375 3.34375 -5.984375 Z M 3.34375 -5.984375 "/>
</g>
<g id="glyph-0-4">
<path d="M 0.90625 -6.796875 L 0.90625 0 L 2 0 L 2 -3.75 C 2 -5.140625 2.71875 -6.046875 3.84375 -6.046875 C 4.6875 -6.046875 5.234375 -5.53125 5.234375 -4.703125 L 5.234375 0 L 6.3125 0 L 6.3125 -5.140625 C 6.3125 -6.265625 5.46875 -6.984375 4.15625 -6.984375 C 3.15625 -6.984375 2.5 -6.59375 1.90625 -5.65625 L 1.90625 -6.796875 Z M 0.90625 -6.796875 "/>
</g>
<g id="glyph-0-5">
<path d="M 6.9375 -0.640625 C 6.828125 -0.609375 6.765625 -0.609375 6.703125 -0.609375 C 6.328125 -0.609375 6.125 -0.796875 6.125 -1.140625 L 6.125 -5.140625 C 6.125 -6.34375 5.234375 -6.984375 3.5625 -6.984375 C 2.5625 -6.984375 1.78125 -6.703125 1.3125 -6.203125 C 1 -5.84375 0.875 -5.453125 0.84375 -4.78125 L 1.9375 -4.78125 C 2.015625 -5.609375 2.515625 -5.984375 3.53125 -5.984375 C 4.515625 -5.984375 5.046875 -5.625 5.046875 -4.984375 L 5.046875 -4.6875 C 5.03125 -4.234375 4.796875 -4.0625 3.921875 -3.9375 C 2.390625 -3.75 2.15625 -3.703125 1.734375 -3.53125 C 0.953125 -3.1875 0.546875 -2.59375 0.546875 -1.71875 C 0.546875 -0.484375 1.40625 0.296875 2.78125 0.296875 C 3.625 0.296875 4.3125 0 5.078125 -0.703125 C 5.15625 0 5.5 0.296875 6.203125 0.296875 C 6.4375 0.296875 6.578125 0.265625 6.9375 0.1875 Z M 5.046875 -2.140625 C 5.046875 -1.78125 4.9375 -1.5625 4.609375 -1.265625 C 4.171875 -0.859375 3.640625 -0.65625 3.015625 -0.65625 C 2.171875 -0.65625 1.671875 -1.046875 1.671875 -1.734375 C 1.671875 -2.453125 2.140625 -2.8125 3.3125 -2.984375 C 4.46875 -3.140625 4.6875 -3.1875 5.046875 -3.359375 Z M 5.046875 -2.140625 "/>
</g>
<g id="glyph-0-6">
<path d="M 1.96875 -9.453125 L 0.875 -9.453125 L 0.875 0 L 1.96875 0 Z M 1.96875 -9.453125 "/>
</g>
<g id="glyph-0-7">
<path d="M 9.1875 -5 L 5.25 -5 L 5.25 -3.921875 L 8.125 -3.921875 L 8.125 -3.671875 C 8.125 -1.984375 6.890625 -0.765625 5.15625 -0.765625 C 4.203125 -0.765625 3.328125 -1.109375 2.78125 -1.71875 C 2.15625 -2.40625 1.78125 -3.53125 1.78125 -4.6875 C 1.78125 -7.015625 3.09375 -8.546875 5.09375 -8.546875 C 6.53125 -8.546875 7.578125 -7.8125 7.828125 -6.59375 L 9.0625 -6.59375 C 8.734375 -8.5 7.28125 -9.609375 5.109375 -9.609375 C 3.953125 -9.609375 3.015625 -9.3125 2.28125 -8.703125 C 1.1875 -7.796875 0.578125 -6.328125 0.578125 -4.625 C 0.578125 -1.71875 2.34375 0.296875 4.90625 0.296875 C 6.1875 0.296875 7.203125 -0.1875 8.125 -1.203125 L 8.4375 0.046875 L 9.1875 0.046875 Z M 9.1875 -5 "/>
</g>
<g id="glyph-0-8">
<path d="M 0.703125 2.828125 L 1.796875 2.828125 L 1.796875 -0.71875 C 2.359375 -0.015625 3 0.296875 3.875 0.296875 C 5.640625 0.296875 6.78125 -1.109375 6.78125 -3.28125 C 6.78125 -5.5625 5.671875 -6.984375 3.859375 -6.984375 C 2.9375 -6.984375 2.203125 -6.578125 1.703125 -5.765625 L 1.703125 -6.796875 L 0.703125 -6.796875 Z M 3.6875 -5.984375 C 4.875 -5.984375 5.65625 -4.921875 5.65625 -3.3125 C 5.65625 -1.765625 4.859375 -0.71875 3.6875 -0.71875 C 2.53125 -0.71875 1.796875 -1.75 1.796875 -3.34375 C 1.796875 -4.9375 2.53125 -5.984375 3.6875 -5.984375 Z M 3.6875 -5.984375 "/>
</g>
<g id="glyph-0-9">
<path d="M 6.65625 -3.03125 C 6.65625 -4.078125 6.578125 -4.6875 6.375 -5.203125 C 5.9375 -6.3125 4.90625 -6.984375 3.625 -6.984375 C 1.734375 -6.984375 0.515625 -5.546875 0.515625 -3.3125 C 0.515625 -1.0625 1.6875 0.296875 3.609375 0.296875 C 5.15625 0.296875 6.234375 -0.578125 6.515625 -2.0625 L 5.421875 -2.0625 C 5.125 -1.171875 4.515625 -0.703125 3.640625 -0.703125 C 2.953125 -0.703125 2.375 -1.015625 2.015625 -1.578125 C 1.75 -1.96875 1.65625 -2.359375 1.640625 -3.03125 Z M 1.671875 -3.921875 C 1.765625 -5.171875 2.53125 -5.984375 3.625 -5.984375 C 4.71875 -5.984375 5.484375 -5.140625 5.484375 -3.921875 Z M 1.671875 -3.921875 "/>
</g>
<g id="glyph-0-10">
<path d="M 7.15625 -9.453125 L 7.15625 -2.8125 C 7.15625 -1.546875 6.234375 -0.765625 4.71875 -0.765625 C 4.015625 -0.765625 3.453125 -0.9375 3 -1.265625 C 2.53125 -1.625 2.3125 -2.09375 2.3125 -2.8125 L 2.3125 -9.453125 L 1.109375 -9.453125 L 1.109375 -2.8125 C 1.109375 -0.890625 2.484375 0.296875 4.71875 0.296875 C 6.9375 0.296875 8.359375 -0.921875 8.359375 -2.8125 L 8.359375 -9.453125 Z M 7.15625 -9.453125 "/>
</g>
<g id="glyph-0-11">
<path d="M 6.0625 0 L 8.734375 -7.921875 L 8.734375 0 L 9.875 0 L 9.875 -9.453125 L 8.203125 -9.453125 L 5.453125 -1.21875 L 2.640625 -9.453125 L 0.96875 -9.453125 L 0.96875 0 L 2.109375 0 L 2.109375 -7.921875 L 4.796875 0 Z M 6.0625 0 "/>
</g>
<g id="glyph-0-12">
<path d="M 2.515625 -9.453125 L 1.296875 -9.453125 L 1.296875 0 L 2.515625 0 Z M 2.515625 -9.453125 "/>
</g>
<g id="glyph-0-13">
</g>
<g id="glyph-0-14">
<path d="M 3.0625 -9.453125 C 1.765625 -7.75 0.953125 -5.390625 0.953125 -3.359375 C 0.953125 -1.3125 1.765625 1.046875 3.0625 2.75 L 3.78125 2.75 C 2.625 0.890625 2 -1.28125 2 -3.359375 C 2 -5.421875 2.625 -7.609375 3.78125 -9.453125 Z M 3.0625 -9.453125 "/>
</g>
<g id="glyph-0-15">
<path d="M 5.6875 -4.90625 C 5.671875 -6.234375 4.78125 -6.984375 3.21875 -6.984375 C 1.640625 -6.984375 0.609375 -6.171875 0.609375 -4.921875 C 0.609375 -3.859375 1.15625 -3.34375 2.765625 -2.953125 L 3.78125 -2.703125 C 4.53125 -2.53125 4.828125 -2.25 4.828125 -1.78125 C 4.828125 -1.125 4.1875 -0.703125 3.25 -0.703125 C 2.65625 -0.703125 2.171875 -0.875 1.890625 -1.15625 C 1.71875 -1.34375 1.640625 -1.546875 1.578125 -2.015625 L 0.4375 -2.015625 C 0.5 -0.453125 1.375 0.296875 3.15625 0.296875 C 4.859375 0.296875 5.953125 -0.546875 5.953125 -1.859375 C 5.953125 -2.859375 5.375 -3.421875 4.03125 -3.75 L 3 -4 C 2.109375 -4.203125 1.734375 -4.484375 1.734375 -4.96875 C 1.734375 -5.609375 2.296875 -5.984375 3.171875 -5.984375 C 4.046875 -5.984375 4.515625 -5.609375 4.546875 -4.90625 Z M 5.6875 -4.90625 "/>
</g>
<g id="glyph-0-16">
<path d="M 1.203125 2.75 C 2.5 1.046875 3.3125 -1.3125 3.3125 -3.34375 C 3.3125 -5.390625 2.5 -7.75 1.203125 -9.453125 L 0.5 -9.453125 C 1.640625 -7.59375 2.265625 -5.421875 2.265625 -3.34375 C 2.265625 -1.28125 1.640625 0.90625 0.5 2.75 Z M 1.203125 2.75 "/>
</g>
<g id="glyph-0-17">
<path d="M 5.015625 -3.703125 L 8.578125 -9.453125 L 7.140625 -9.453125 L 4.4375 -4.84375 L 1.65625 -9.453125 L 0.171875 -9.453125 L 3.8125 -3.703125 L 3.8125 0 L 5.015625 0 Z M 5.015625 -3.703125 "/>
</g>
<g id="glyph-0-18">
<path d="M 6.140625 -2.84375 L 7.125 0 L 8.46875 0 L 5.15625 -9.453125 L 3.59375 -9.453125 L 0.21875 0 L 1.5 0 L 2.5 -2.84375 Z M 5.8125 -3.859375 L 2.796875 -3.859375 L 4.359375 -8.15625 Z M 5.8125 -3.859375 "/>
</g>
<g id="glyph-0-19">
<path d="M 0.90625 -6.796875 L 0.90625 0 L 2 0 L 2 -4.265625 C 2 -5.25 2.703125 -6.046875 3.59375 -6.046875 C 4.390625 -6.046875 4.84375 -5.546875 4.84375 -4.6875 L 4.84375 0 L 5.9375 0 L 5.9375 -4.265625 C 5.9375 -5.25 6.65625 -6.046875 7.53125 -6.046875 C 8.328125 -6.046875 8.796875 -5.53125 8.796875 -4.6875 L 8.796875 0 L 9.875 0 L 9.875 -5.09375 C 9.875 -6.3125 9.1875 -6.984375 7.90625 -6.984375 C 7 -6.984375 6.453125 -6.71875 5.828125 -5.953125 C 5.421875 -6.671875 4.875 -6.984375 4 -6.984375 C 3.09375 -6.984375 2.484375 -6.65625 1.90625 -5.84375 L 1.90625 -6.796875 Z M 0.90625 -6.796875 "/>
</g>
<g id="glyph-0-20">
<path d="M 7.734375 -6.671875 C 7.734375 -7.328125 7.6875 -7.515625 7.484375 -7.953125 C 6.96875 -9.046875 5.859375 -9.609375 4.265625 -9.609375 C 2.1875 -9.609375 0.90625 -8.546875 0.90625 -6.828125 C 0.90625 -5.6875 1.515625 -4.953125 2.765625 -4.625 L 5.109375 -4 C 6.3125 -3.703125 6.84375 -3.21875 6.84375 -2.484375 C 6.84375 -1.96875 6.578125 -1.453125 6.171875 -1.171875 C 5.796875 -0.890625 5.203125 -0.765625 4.4375 -0.765625 C 3.390625 -0.765625 2.703125 -1.015625 2.25 -1.5625 C 1.90625 -1.96875 1.75 -2.421875 1.765625 -3.015625 L 0.625 -3.015625 C 0.640625 -2.140625 0.796875 -1.5625 1.1875 -1.046875 C 1.828125 -0.15625 2.921875 0.296875 4.359375 0.296875 C 5.484375 0.296875 6.40625 0.03125 7.015625 -0.421875 C 7.65625 -0.9375 8.046875 -1.78125 8.046875 -2.59375 C 8.046875 -3.765625 7.328125 -4.609375 6.046875 -4.96875 L 3.671875 -5.609375 C 2.53125 -5.90625 2.109375 -6.28125 2.109375 -7 C 2.109375 -7.96875 2.953125 -8.59375 4.234375 -8.59375 C 5.734375 -8.59375 6.578125 -7.921875 6.59375 -6.671875 Z M 7.734375 -6.671875 "/>
</g>
<g id="glyph-0-21">
<path d="M 0.90625 -9.453125 L 0.90625 0 L 1.984375 0 L 1.984375 -3.75 C 1.984375 -5.140625 2.703125 -6.046875 3.828125 -6.046875 C 4.1875 -6.046875 4.53125 -5.9375 4.78125 -5.75 C 5.09375 -5.515625 5.21875 -5.1875 5.21875 -4.703125 L 5.21875 0 L 6.296875 0 L 6.296875 -5.140625 C 6.296875 -6.28125 5.484375 -6.984375 4.15625 -6.984375 C 3.203125 -6.984375 2.625 -6.6875 1.984375 -5.859375 L 1.984375 -9.453125 Z M 0.90625 -9.453125 "/>
</g>
<g id="glyph-0-22">
<path d="M 7.140625 -4.3125 L 7.140625 0 L 8.359375 0 L 8.359375 -9.453125 L 7.140625 -9.453125 L 7.140625 -5.375 L 2.28125 -5.375 L 2.28125 -9.453125 L 1.078125 -9.453125 L 1.078125 0 L 2.28125 0 L 2.28125 -4.3125 Z M 7.140625 -4.3125 "/>
</g>
<g id="glyph-0-23">
<path d="M 6.421875 -9.453125 L 5.34375 -9.453125 L 5.34375 -5.9375 C 4.890625 -6.625 4.15625 -6.984375 3.25 -6.984375 C 1.484375 -6.984375 0.34375 -5.578125 0.34375 -3.40625 C 0.34375 -1.109375 1.453125 0.296875 3.296875 0.296875 C 4.234375 0.296875 4.875 -0.046875 5.453125 -0.890625 L 5.453125 0 L 6.421875 0 Z M 3.4375 -5.984375 C 4.609375 -5.984375 5.34375 -4.953125 5.34375 -3.3125 C 5.34375 -1.75 4.59375 -0.71875 3.453125 -0.71875 C 2.25 -0.71875 1.46875 -1.765625 1.46875 -3.34375 C 1.46875 -4.921875 2.25 -5.984375 3.4375 -5.984375 Z M 3.4375 -5.984375 "/>
</g>
<g id="glyph-1-0">
<path d="M 3.296875 -8.65625 C 2.5 -8.65625 1.78125 -8.296875 1.34375 -7.703125 C 0.796875 -6.9375 0.515625 -5.796875 0.515625 -4.1875 C 0.515625 -1.265625 1.46875 0.28125 3.296875 0.28125 C 5.09375 0.28125 6.0625 -1.265625 6.0625 -4.125 C 6.0625 -5.796875 5.8125 -6.921875 5.25 -7.703125 C 4.796875 -8.3125 4.09375 -8.65625 3.296875 -8.65625 Z M 3.296875 -7.71875 C 4.421875 -7.71875 4.984375 -6.5625 4.984375 -4.21875 C 4.984375 -1.75 4.4375 -0.59375 3.265625 -0.59375 C 2.15625 -0.59375 1.59375 -1.796875 1.59375 -4.171875 C 1.59375 -6.5625 2.15625 -7.71875 3.296875 -7.71875 Z M 3.296875 -7.71875 "/>
</g>
<g id="glyph-1-1">
<path d="M 6.0625 -1.046875 L 1.59375 -1.046875 C 1.703125 -1.765625 2.078125 -2.21875 3.125 -2.84375 L 4.328125 -3.515625 C 5.5 -4.171875 6.109375 -5.0625 6.109375 -6.125 C 6.109375 -6.84375 5.828125 -7.515625 5.328125 -7.984375 C 4.828125 -8.4375 4.203125 -8.65625 3.40625 -8.65625 C 2.328125 -8.65625 1.515625 -8.265625 1.046875 -7.53125 C 0.75 -7.078125 0.625 -6.53125 0.59375 -5.65625 L 1.65625 -5.65625 C 1.6875 -6.25 1.765625 -6.59375 1.90625 -6.875 C 2.171875 -7.40625 2.734375 -7.734375 3.359375 -7.734375 C 4.328125 -7.734375 5.03125 -7.03125 5.03125 -6.109375 C 5.03125 -5.40625 4.640625 -4.8125 3.890625 -4.375 L 2.78125 -3.734375 C 1.015625 -2.71875 0.5 -1.90625 0.40625 -0.015625 L 6.0625 -0.015625 Z M 6.0625 -1.046875 "/>
</g>
<g id="glyph-1-2">
<path d="M 5.703125 -8.484375 L 1.3125 -8.484375 L 0.6875 -3.859375 L 1.65625 -3.859375 C 2.140625 -4.453125 2.546875 -4.65625 3.21875 -4.65625 C 4.359375 -4.65625 5.0625 -3.875 5.0625 -2.625 C 5.0625 -1.40625 4.359375 -0.65625 3.203125 -0.65625 C 2.28125 -0.65625 1.71875 -1.125 1.46875 -2.078125 L 0.421875 -2.078125 C 0.5625 -1.390625 0.6875 -1.046875 0.9375 -0.734375 C 1.40625 -0.09375 2.28125 0.28125 3.234375 0.28125 C 4.9375 0.28125 6.140625 -0.96875 6.140625 -2.765625 C 6.140625 -4.4375 5.03125 -5.59375 3.40625 -5.59375 C 2.796875 -5.59375 2.328125 -5.4375 1.828125 -5.078125 L 2.171875 -7.4375 L 5.703125 -7.4375 Z M 5.703125 -8.484375 "/>
</g>
<g id="glyph-1-3">
<path d="M 6.21875 -8.484375 L 0.546875 -8.484375 L 0.546875 -7.4375 L 5.140625 -7.4375 C 3.109375 -4.5625 2.28125 -2.78125 1.65625 0 L 2.78125 0 C 3.25 -2.71875 4.3125 -5.046875 6.21875 -7.59375 Z M 6.21875 -8.484375 "/>
</g>
<g id="glyph-1-4">
<path d="M 3.09375 -6.15625 L 3.09375 0 L 4.15625 0 L 4.15625 -8.65625 L 3.453125 -8.65625 C 3.09375 -7.328125 2.84375 -7.140625 1.21875 -6.9375 L 1.21875 -6.15625 Z M 3.09375 -6.15625 "/>
</g>
<g id="glyph-1-5">
<path d="M 4.6875 -4.5625 C 5.5625 -5.09375 5.84375 -5.53125 5.84375 -6.34375 C 5.84375 -7.703125 4.796875 -8.65625 3.296875 -8.65625 C 1.796875 -8.65625 0.734375 -7.703125 0.734375 -6.359375 C 0.734375 -5.53125 1.015625 -5.109375 1.890625 -4.5625 C 0.921875 -4.0625 0.4375 -3.359375 0.4375 -2.40625 C 0.4375 -0.828125 1.609375 0.28125 3.296875 0.28125 C 4.96875 0.28125 6.140625 -0.828125 6.140625 -2.40625 C 6.140625 -3.359375 5.65625 -4.0625 4.6875 -4.5625 Z M 3.296875 -7.71875 C 4.1875 -7.71875 4.765625 -7.1875 4.765625 -6.3125 C 4.765625 -5.5 4.171875 -4.96875 3.296875 -4.96875 C 2.390625 -4.96875 1.8125 -5.5 1.8125 -6.34375 C 1.8125 -7.1875 2.390625 -7.71875 3.296875 -7.71875 Z M 3.296875 -4.078125 C 4.34375 -4.078125 5.0625 -3.390625 5.0625 -2.375 C 5.0625 -1.34375 4.359375 -0.65625 3.265625 -0.65625 C 2.234375 -0.65625 1.515625 -1.359375 1.515625 -2.375 C 1.515625 -3.40625 2.21875 -4.078125 3.296875 -4.078125 Z M 3.296875 -4.078125 "/>
</g>
<g id="glyph-1-6">
<path d="M 5.953125 -6.40625 C 5.75 -7.8125 4.84375 -8.65625 3.5625 -8.65625 C 2.625 -8.65625 1.78125 -8.203125 1.28125 -7.421875 C 0.734375 -6.578125 0.515625 -5.515625 0.515625 -3.953125 C 0.515625 -2.484375 0.71875 -1.5625 1.234375 -0.796875 C 1.6875 -0.09375 2.421875 0.28125 3.359375 0.28125 C 4.984375 0.28125 6.140625 -0.9375 6.140625 -2.625 C 6.140625 -4.21875 5.0625 -5.34375 3.546875 -5.34375 C 2.703125 -5.34375 2.046875 -5.03125 1.59375 -4.390625 C 1.609375 -6.53125 2.28125 -7.71875 3.484375 -7.71875 C 4.21875 -7.71875 4.734375 -7.234375 4.90625 -6.40625 Z M 3.40625 -4.40625 C 4.421875 -4.40625 5.0625 -3.6875 5.0625 -2.53125 C 5.0625 -1.453125 4.34375 -0.65625 3.375 -0.65625 C 2.390625 -0.65625 1.65625 -1.484375 1.65625 -2.578125 C 1.65625 -3.65625 2.375 -4.40625 3.40625 -4.40625 Z M 3.40625 -4.40625 "/>
</g>
<g id="glyph-1-7">
<path d="M 0.640625 -1.96875 C 0.84375 -0.5625 1.75 0.28125 3.046875 0.28125 C 3.984375 0.28125 4.828125 -0.171875 5.328125 -0.953125 C 5.859375 -1.8125 6.09375 -2.859375 6.09375 -4.421875 C 6.09375 -5.890625 5.875 -6.8125 5.375 -7.578125 C 4.90625 -8.28125 4.171875 -8.65625 3.234375 -8.65625 C 1.609375 -8.65625 0.453125 -7.4375 0.453125 -5.765625 C 0.453125 -4.171875 1.53125 -3.046875 3.0625 -3.046875 C 3.859375 -3.046875 4.46875 -3.34375 5 -4 C 4.984375 -1.84375 4.328125 -0.65625 3.109375 -0.65625 C 2.375 -0.65625 1.859375 -1.140625 1.6875 -1.96875 Z M 3.21875 -7.734375 C 4.203125 -7.734375 4.9375 -6.90625 4.9375 -5.796875 C 4.9375 -4.734375 4.21875 -3.984375 3.1875 -3.984375 C 2.171875 -3.984375 1.53125 -4.703125 1.53125 -5.859375 C 1.53125 -6.9375 2.234375 -7.734375 3.21875 -7.734375 Z M 3.21875 -7.734375 "/>
</g>
<g id="glyph-1-8">
<path d="M 3.90625 -2.09375 L 3.90625 0 L 4.96875 0 L 4.96875 -2.09375 L 6.21875 -2.09375 L 6.21875 -3.046875 L 4.96875 -3.046875 L 4.96875 -8.65625 L 4.1875 -8.65625 L 0.328125 -3.203125 L 0.328125 -2.09375 Z M 3.90625 -3.046875 L 1.25 -3.046875 L 3.90625 -6.859375 Z M 3.90625 -3.046875 "/>
</g>
<g id="glyph-2-0">
<path d="M -3.0625 -6.625 L 0 -7.671875 L 0 -9.125 L -10.1875 -5.546875 L -10.1875 -3.875 L 0 -0.234375 L 0 -1.625 L -3.0625 -2.703125 Z M -4.15625 -6.265625 L -4.15625 -3.015625 L -8.78125 -4.6875 Z M -4.15625 -6.265625 "/>
</g>
<g id="glyph-2-1">
<path d="M 0 -3.984375 L -7.3125 -6.78125 L -7.3125 -5.46875 L -1.390625 -3.40625 L -7.3125 -1.453125 L -7.3125 -0.140625 L 0 -2.703125 Z M 0 -3.984375 "/>
</g>
<g id="glyph-2-2">
<path d="M -7.3125 -5.640625 L -6.265625 -5.640625 C -7.140625 -5.0625 -7.53125 -4.421875 -7.53125 -3.484375 C -7.53125 -1.71875 -5.875 -0.484375 -3.53125 -0.484375 C -2.3125 -0.484375 -1.40625 -0.78125 -0.671875 -1.40625 C -0.03125 -1.953125 0.328125 -2.65625 0.328125 -3.40625 C 0.328125 -4.28125 -0.0625 -4.921875 -0.984375 -5.53125 L -0.609375 -5.53125 C 1.34375 -5.53125 2.0625 -4.984375 2.0625 -3.53125 C 2.0625 -2.546875 1.671875 -2.03125 0.84375 -1.90625 L 0.84375 -0.71875 C 2.1875 -0.84375 3.046875 -1.90625 3.046875 -3.5 C 3.046875 -4.578125 2.703125 -5.46875 2.109375 -5.953125 C 1.421875 -6.515625 0.515625 -6.71875 -1.203125 -6.71875 L -7.3125 -6.71875 Z M -6.453125 -3.609375 C -6.453125 -4.828125 -5.421875 -5.53125 -3.5625 -5.53125 C -1.78125 -5.53125 -0.75 -4.8125 -0.75 -3.609375 C -0.75 -2.40625 -1.796875 -1.703125 -3.609375 -1.703125 C -5.390625 -1.703125 -6.453125 -2.40625 -6.453125 -3.609375 Z M -6.453125 -3.609375 "/>
</g>
<g id="glyph-2-3">
<path d="M -1.453125 -2.671875 L -1.453125 -1.21875 L 0 -1.21875 L 0 -2.671875 Z M -1.453125 -2.671875 "/>
</g>
<g id="glyph-2-4">
</g>
<g id="glyph-2-5">
<path d="M -4.3125 -2.5625 L -4.3125 -5.765625 C -4.3125 -6.5625 -4.546875 -7.1875 -5.046875 -7.734375 C -5.59375 -8.359375 -6.265625 -8.625 -7.1875 -8.625 C -9.109375 -8.625 -10.1875 -7.484375 -10.1875 -5.46875 L -10.1875 -1.265625 L 0 -1.265625 L 0 -2.5625 Z M -5.46875 -2.5625 L -9.03125 -2.5625 L -9.03125 -5.28125 C -9.03125 -6.515625 -8.375 -7.265625 -7.25 -7.265625 C -6.125 -7.265625 -5.46875 -6.515625 -5.46875 -5.28125 Z M -5.46875 -2.5625 "/>
</g>
<g id="glyph-2-6">
<path d="M -7.3125 -0.96875 L 0 -0.96875 L 0 -2.140625 L -3.796875 -2.140625 C -5.5625 -2.15625 -6.34375 -2.875 -6.296875 -4.484375 L -7.484375 -4.484375 C -7.515625 -4.28125 -7.53125 -4.171875 -7.53125 -4.03125 C -7.53125 -3.28125 -7.078125 -2.703125 -6 -2.046875 L -7.3125 -2.046875 Z M -7.3125 -0.96875 "/>
</g>
<g id="glyph-2-7">
<path d="M -7.53125 -3.796875 C -7.53125 -1.734375 -6.0625 -0.5 -3.609375 -0.5 C -1.125 -0.5 0.328125 -1.734375 0.328125 -3.8125 C 0.328125 -5.875 -1.140625 -7.125 -3.546875 -7.125 C -6.09375 -7.125 -7.53125 -5.921875 -7.53125 -3.796875 Z M -6.453125 -3.8125 C -6.453125 -5.125 -5.375 -5.90625 -3.5625 -5.90625 C -1.828125 -5.90625 -0.75 -5.09375 -0.75 -3.8125 C -0.75 -2.515625 -1.828125 -1.71875 -3.609375 -1.71875 C -5.375 -1.71875 -6.453125 -2.515625 -6.453125 -3.8125 Z M -6.453125 -3.8125 "/>
</g>
<g id="glyph-2-8">
<path d="M -3.265625 -7.171875 C -4.390625 -7.171875 -5.0625 -7.078125 -5.59375 -6.875 C -6.796875 -6.390625 -7.53125 -5.28125 -7.53125 -3.90625 C -7.53125 -1.875 -5.984375 -0.5625 -3.5625 -0.5625 C -1.140625 -0.5625 0.328125 -1.8125 0.328125 -3.890625 C 0.328125 -5.5625 -0.625 -6.71875 -2.21875 -7.015625 L -2.21875 -5.84375 C -1.25 -5.515625 -0.75 -4.859375 -0.75 -3.921875 C -0.75 -3.1875 -1.09375 -2.5625 -1.703125 -2.171875 C -2.125 -1.890625 -2.546875 -1.78125 -3.265625 -1.78125 Z M -4.21875 -1.796875 C -5.578125 -1.90625 -6.453125 -2.71875 -6.453125 -3.890625 C -6.453125 -5.078125 -5.53125 -5.90625 -4.21875 -5.90625 Z M -4.21875 -1.796875 "/>
</g>
<g id="glyph-2-9">
<path d="M -5.28125 -6.125 C -6.71875 -6.109375 -7.53125 -5.15625 -7.53125 -3.46875 C -7.53125 -1.765625 -6.65625 -0.65625 -5.296875 -0.65625 C -4.15625 -0.65625 -3.609375 -1.25 -3.1875 -2.96875 L -2.921875 -4.0625 C -2.71875 -4.875 -2.4375 -5.203125 -1.90625 -5.203125 C -1.21875 -5.203125 -0.75 -4.515625 -0.75 -3.484375 C -0.75 -2.859375 -0.9375 -2.328125 -1.25 -2.046875 C -1.453125 -1.859375 -1.65625 -1.78125 -2.171875 -1.703125 L -2.171875 -0.46875 C -0.484375 -0.53125 0.328125 -1.484375 0.328125 -3.390625 C 0.328125 -5.234375 -0.59375 -6.40625 -2 -6.40625 C -3.09375 -6.40625 -3.6875 -5.796875 -4.03125 -4.34375 L -4.296875 -3.234375 C -4.53125 -2.28125 -4.828125 -1.875 -5.34375 -1.875 C -6.03125 -1.875 -6.453125 -2.46875 -6.453125 -3.421875 C -6.453125 -4.359375 -6.046875 -4.859375 -5.28125 -4.890625 Z M -5.28125 -6.125 "/>
</g>
<g id="glyph-2-10">
<path d="M -7.3125 -2.09375 L -7.3125 -0.9375 L 0 -0.9375 L 0 -2.09375 Z M -10.1875 -2.09375 L -10.1875 -0.921875 L -8.71875 -0.921875 L -8.71875 -2.09375 Z M -10.1875 -2.09375 "/>
</g>
<g id="glyph-2-11">
<path d="M -7.3125 -0.984375 L 0 -0.984375 L 0 -2.15625 L -4.03125 -2.15625 C -5.53125 -2.15625 -6.515625 -2.9375 -6.515625 -4.140625 C -6.515625 -5.0625 -5.953125 -5.640625 -5.078125 -5.640625 L 0 -5.640625 L 0 -6.796875 L -5.53125 -6.796875 C -6.75 -6.796875 -7.53125 -5.890625 -7.53125 -4.484375 C -7.53125 -3.390625 -7.109375 -2.703125 -6.09375 -2.046875 L -7.3125 -2.046875 Z M -7.3125 -0.984375 "/>
</g>
<g id="glyph-2-12">
<path d="M -10.1875 -3.296875 C -8.359375 -1.90625 -5.8125 -1.015625 -3.625 -1.015625 C -1.40625 -1.015625 1.125 -1.90625 2.96875 -3.296875 L 2.96875 -4.0625 C 0.96875 -2.828125 -1.390625 -2.15625 -3.625 -2.15625 C -5.84375 -2.15625 -8.203125 -2.828125 -10.1875 -4.0625 Z M -10.1875 -3.296875 "/>
</g>
<g id="glyph-2-13">
<path d="M -9.5625 -2.78125 C -9.5625 -1.46875 -8.5 -0.40625 -7.1875 -0.40625 C -5.859375 -0.40625 -4.796875 -1.46875 -4.796875 -2.796875 C -4.796875 -4.09375 -5.859375 -5.171875 -7.15625 -5.171875 C -8.5 -5.171875 -9.5625 -4.125 -9.5625 -2.78125 Z M -8.59375 -2.78125 C -8.59375 -3.578125 -7.96875 -4.203125 -7.171875 -4.203125 C -6.390625 -4.203125 -5.765625 -3.5625 -5.765625 -2.796875 C -5.765625 -2.015625 -6.390625 -1.375 -7.1875 -1.375 C -7.96875 -1.375 -8.59375 -2 -8.59375 -2.78125 Z M -9.90625 -8.5 L 0.28125 -2.984375 L 0.28125 -3.90625 L -9.90625 -9.421875 Z M -4.5 -9.609375 C -4.5 -8.296875 -3.4375 -7.234375 -2.125 -7.234375 C -0.796875 -7.234375 0.265625 -8.296875 0.265625 -9.625 C 0.265625 -10.921875 -0.796875 -12 -2.09375 -12 C -3.4375 -12 -4.5 -10.953125 -4.5 -9.609375 Z M -3.515625 -9.609375 C -3.515625 -10.40625 -2.890625 -11.03125 -2.09375 -11.03125 C -1.34375 -11.03125 -0.71875 -10.390625 -0.71875 -9.625 C -0.71875 -8.828125 -1.34375 -8.203125 -2.125 -8.203125 C -2.890625 -8.203125 -3.515625 -8.828125 -3.515625 -9.609375 Z M -3.515625 -9.609375 "/>
</g>
<g id="glyph-2-14">
<path d="M 2.96875 -1.296875 C 1.125 -2.703125 -1.40625 -3.578125 -3.609375 -3.578125 C -5.8125 -3.578125 -8.359375 -2.703125 -10.1875 -1.296875 L -10.1875 -0.53125 C -8.1875 -1.765625 -5.84375 -2.4375 -3.609375 -2.4375 C -1.390625 -2.4375 0.984375 -1.765625 2.96875 -0.53125 Z M 2.96875 -1.296875 "/>
</g>
<g id="glyph-3-0">
<path d="M 9.90625 -7.53125 C 9.46875 -9.921875 8.09375 -11.09375 5.703125 -11.09375 C 4.234375 -11.09375 3.046875 -10.625 2.25 -9.734375 C 1.25 -8.65625 0.71875 -7.09375 0.71875 -5.328125 C 0.71875 -3.53125 1.265625 -1.984375 2.296875 -0.921875 C 3.140625 -0.0625 4.21875 0.34375 5.640625 0.34375 C 8.3125 0.34375 9.796875 -1.09375 10.140625 -3.984375 L 8.703125 -3.984375 C 8.578125 -3.234375 8.421875 -2.71875 8.203125 -2.296875 C 7.75 -1.390625 6.828125 -0.890625 5.65625 -0.890625 C 3.484375 -0.890625 2.109375 -2.625 2.109375 -5.34375 C 2.109375 -8.140625 3.40625 -9.859375 5.53125 -9.859375 C 6.421875 -9.859375 7.25 -9.609375 7.6875 -9.171875 C 8.09375 -8.796875 8.328125 -8.359375 8.484375 -7.53125 Z M 9.90625 -7.53125 "/>
</g>
<g id="glyph-3-1">
<path d="M 2.28125 -10.90625 L 1.015625 -10.90625 L 1.015625 0 L 2.28125 0 Z M 2.28125 -10.90625 "/>
</g>
<g id="glyph-3-2">
<path d="M 4.078125 -8.0625 C 1.859375 -8.0625 0.53125 -6.5 0.53125 -3.859375 C 0.53125 -1.21875 1.859375 0.34375 4.09375 0.34375 C 6.296875 0.34375 7.640625 -1.234375 7.640625 -3.796875 C 7.640625 -6.53125 6.34375 -8.0625 4.078125 -8.0625 Z M 4.09375 -6.921875 C 5.5 -6.921875 6.328125 -5.765625 6.328125 -3.8125 C 6.328125 -1.953125 5.46875 -0.8125 4.09375 -0.8125 C 2.6875 -0.8125 1.84375 -1.953125 1.84375 -3.859375 C 1.84375 -5.765625 2.6875 -6.921875 4.09375 -6.921875 Z M 4.09375 -6.921875 "/>
</g>
<g id="glyph-3-3">
<path d="M 8.015625 -0.734375 C 7.875 -0.703125 7.8125 -0.703125 7.734375 -0.703125 C 7.3125 -0.703125 7.0625 -0.921875 7.0625 -1.3125 L 7.0625 -5.921875 C 7.0625 -7.3125 6.046875 -8.0625 4.109375 -8.0625 C 2.96875 -8.0625 2.046875 -7.734375 1.515625 -7.15625 C 1.15625 -6.75 1 -6.296875 0.96875 -5.515625 L 2.234375 -5.515625 C 2.328125 -6.484375 2.90625 -6.921875 4.078125 -6.921875 C 5.203125 -6.921875 5.828125 -6.5 5.828125 -5.75 L 5.828125 -5.421875 C 5.8125 -4.875 5.53125 -4.6875 4.515625 -4.546875 C 2.75 -4.328125 2.484375 -4.265625 2 -4.078125 C 1.09375 -3.6875 0.625 -3 0.625 -1.96875 C 0.625 -0.546875 1.609375 0.34375 3.203125 0.34375 C 4.1875 0.34375 4.984375 0 5.875 -0.8125 C 5.953125 0 6.34375 0.34375 7.15625 0.34375 C 7.421875 0.34375 7.59375 0.3125 8.015625 0.203125 Z M 5.828125 -2.46875 C 5.828125 -2.046875 5.703125 -1.796875 5.328125 -1.453125 C 4.8125 -0.984375 4.203125 -0.75 3.46875 -0.75 C 2.5 -0.75 1.9375 -1.21875 1.9375 -2 C 1.9375 -2.828125 2.46875 -3.25 3.8125 -3.4375 C 5.15625 -3.625 5.40625 -3.6875 5.828125 -3.875 Z M 5.828125 -2.46875 "/>
</g>
<g id="glyph-3-4">
<path d="M 2.109375 -10.90625 L 0.875 -10.90625 L 0.875 0 L 2.109375 0 L 2.109375 -3.046875 L 3.328125 -4.25 L 5.96875 0 L 7.515625 0 L 4.3125 -5.140625 L 7.03125 -7.84375 L 5.4375 -7.84375 L 2.109375 -4.515625 Z M 2.109375 -10.90625 "/>
</g>
<g id="glyph-3-5">
<path d="M 4.25 -4.671875 L 0.6875 -4.671875 L 0.6875 -3.59375 L 4.25 -3.59375 Z M 4.25 -4.671875 "/>
</g>
<g id="glyph-3-6">
<path d="M 5.875 0 L 9.65625 -10.90625 L 8.171875 -10.90625 L 5.15625 -1.671875 L 1.953125 -10.90625 L 0.453125 -10.90625 L 4.375 0 Z M 5.875 0 "/>
</g>
<g id="glyph-3-7">
<path d="M 2.59375 -10.90625 L 1.203125 -10.90625 L 1.203125 0 L 7.984375 0 L 7.984375 -1.234375 L 2.59375 -1.234375 Z M 2.59375 -10.90625 "/>
</g>
<g id="glyph-3-8">
<path d="M 7.09375 -3.28125 L 8.21875 0 L 9.78125 0 L 5.9375 -10.90625 L 4.140625 -10.90625 L 0.25 0 L 1.734375 0 L 2.890625 -3.28125 Z M 6.703125 -4.453125 L 3.234375 -4.453125 L 5.03125 -9.421875 Z M 6.703125 -4.453125 "/>
</g>
<g id="glyph-3-9">
</g>
<g id="glyph-3-10">
<path d="M 3.53125 -10.90625 C 2.03125 -8.953125 1.09375 -6.234375 1.09375 -3.875 C 1.09375 -1.515625 2.03125 1.21875 3.53125 3.171875 L 4.359375 3.171875 C 3.03125 1.03125 2.3125 -1.484375 2.3125 -3.875 C 2.3125 -6.25 3.03125 -8.78125 4.359375 -10.90625 Z M 3.53125 -10.90625 "/>
</g>
<g id="glyph-3-11">
<path d="M 5.828125 -11.09375 C 2.6875 -11.09375 0.5625 -8.78125 0.5625 -5.375 C 0.5625 -1.953125 2.671875 0.34375 5.84375 0.34375 C 7.171875 0.34375 8.34375 -0.0625 9.21875 -0.8125 C 10.40625 -1.8125 11.109375 -3.5 11.109375 -5.28125 C 11.109375 -8.796875 9.03125 -11.09375 5.828125 -11.09375 Z M 5.828125 -9.859375 C 8.1875 -9.859375 9.71875 -8.078125 9.71875 -5.3125 C 9.71875 -2.671875 8.140625 -0.890625 5.84375 -0.890625 C 3.5 -0.890625 1.953125 -2.671875 1.953125 -5.375 C 1.953125 -8.0625 3.5 -9.859375 5.828125 -9.859375 Z M 5.828125 -9.859375 "/>
</g>
<g id="glyph-3-12">
<path d="M 7.21875 0 L 7.21875 -7.84375 L 5.96875 -7.84375 L 5.96875 -3.390625 C 5.96875 -1.796875 5.140625 -0.75 3.828125 -0.75 C 2.84375 -0.75 2.21875 -1.34375 2.21875 -2.296875 L 2.21875 -7.84375 L 0.96875 -7.84375 L 0.96875 -1.796875 C 0.96875 -0.5 1.953125 0.34375 3.46875 0.34375 C 4.625 0.34375 5.359375 -0.0625 6.09375 -1.09375 L 6.09375 0 Z M 7.21875 0 "/>
</g>
<g id="glyph-3-13">
<path d="M 1.03125 -7.84375 L 1.03125 0 L 2.296875 0 L 2.296875 -4.078125 C 2.3125 -5.953125 3.078125 -6.796875 4.8125 -6.75 L 4.8125 -8.015625 C 4.59375 -8.046875 4.46875 -8.0625 4.328125 -8.0625 C 3.515625 -8.0625 2.90625 -7.59375 2.1875 -6.421875 L 2.1875 -7.84375 Z M 1.03125 -7.84375 "/>
</g>
<g id="glyph-3-14">
<path d="M 6.5625 -5.65625 C 6.546875 -7.203125 5.515625 -8.0625 3.71875 -8.0625 C 1.890625 -8.0625 0.703125 -7.125 0.703125 -5.671875 C 0.703125 -4.453125 1.328125 -3.859375 3.1875 -3.40625 L 4.359375 -3.125 C 5.21875 -2.921875 5.5625 -2.609375 5.5625 -2.046875 C 5.5625 -1.296875 4.828125 -0.8125 3.734375 -0.8125 C 3.0625 -0.8125 2.5 -1 2.1875 -1.328125 C 1.984375 -1.5625 1.90625 -1.78125 1.828125 -2.328125 L 0.515625 -2.328125 C 0.5625 -0.53125 1.59375 0.34375 3.640625 0.34375 C 5.609375 0.34375 6.875 -0.625 6.875 -2.140625 C 6.875 -3.3125 6.21875 -3.953125 4.65625 -4.328125 L 3.453125 -4.609375 C 2.4375 -4.84375 2 -5.171875 2 -5.734375 C 2 -6.46875 2.65625 -6.921875 3.671875 -6.921875 C 4.671875 -6.921875 5.203125 -6.484375 5.234375 -5.65625 Z M 6.5625 -5.65625 "/>
</g>
<g id="glyph-3-15">
<path d="M 1.390625 3.171875 C 2.890625 1.21875 3.828125 -1.515625 3.828125 -3.859375 C 3.828125 -6.234375 2.890625 -8.953125 1.390625 -10.90625 L 0.5625 -10.90625 C 1.890625 -8.765625 2.625 -6.25 2.625 -3.859375 C 2.625 -1.484375 1.890625 1.046875 0.5625 3.171875 Z M 1.390625 3.171875 "/>
</g>
<g id="glyph-3-16">
<path d="M 7.40625 -10.90625 L 6.171875 -10.90625 L 6.171875 -6.859375 C 5.640625 -7.65625 4.8125 -8.0625 3.75 -8.0625 C 1.71875 -8.0625 0.390625 -6.4375 0.390625 -3.9375 C 0.390625 -1.28125 1.671875 0.34375 3.796875 0.34375 C 4.875 0.34375 5.625 -0.0625 6.296875 -1.03125 L 6.296875 0 L 7.40625 0 Z M 3.96875 -6.90625 C 5.3125 -6.90625 6.171875 -5.71875 6.171875 -3.828125 C 6.171875 -2.015625 5.296875 -0.828125 3.984375 -0.828125 C 2.609375 -0.828125 1.6875 -2.03125 1.6875 -3.859375 C 1.6875 -5.6875 2.609375 -6.90625 3.96875 -6.90625 Z M 3.96875 -6.90625 "/>
</g>
<g id="glyph-3-17">
<path d="M 2.25 -7.84375 L 1 -7.84375 L 1 0 L 2.25 0 Z M 2.25 -10.90625 L 0.984375 -10.90625 L 0.984375 -9.34375 L 2.25 -9.34375 Z M 2.25 -10.90625 "/>
</g>
<g id="glyph-3-18">
<path d="M 8 -4 L 4.890625 -4 L 4.890625 -7.09375 L 3.84375 -7.09375 L 3.84375 -4 L 0.75 -4 L 0.75 -2.953125 L 3.84375 -2.953125 L 3.84375 0.15625 L 4.890625 0.15625 L 4.890625 -2.953125 L 8 -2.953125 Z M 8 -4 "/>
</g>
<g id="glyph-3-19">
<path d="M 7.671875 -3.5 C 7.671875 -4.703125 7.59375 -5.421875 7.359375 -6 C 6.859375 -7.296875 5.65625 -8.0625 4.1875 -8.0625 C 2 -8.0625 0.59375 -6.40625 0.59375 -3.8125 C 0.59375 -1.234375 1.953125 0.34375 4.15625 0.34375 C 5.953125 0.34375 7.203125 -0.671875 7.515625 -2.375 L 6.25 -2.375 C 5.90625 -1.34375 5.203125 -0.8125 4.203125 -0.8125 C 3.40625 -0.8125 2.734375 -1.171875 2.3125 -1.828125 C 2.015625 -2.28125 1.921875 -2.71875 1.90625 -3.5 Z M 1.9375 -4.515625 C 2.03125 -5.96875 2.921875 -6.921875 4.171875 -6.921875 C 5.453125 -6.921875 6.328125 -5.921875 6.328125 -4.515625 Z M 1.9375 -4.515625 "/>
</g>
<g id="glyph-3-20">
<path d="M 3.796875 -7.84375 L 2.515625 -7.84375 L 2.515625 -10 L 1.265625 -10 L 1.265625 -7.84375 L 0.203125 -7.84375 L 0.203125 -6.828125 L 1.265625 -6.828125 L 1.265625 -0.890625 C 1.265625 -0.09375 1.8125 0.34375 2.78125 0.34375 C 3.109375 0.34375 3.390625 0.3125 3.796875 0.234375 L 3.796875 -0.8125 C 3.625 -0.765625 3.453125 -0.75 3.203125 -0.75 C 2.671875 -0.75 2.515625 -0.890625 2.515625 -1.453125 L 2.515625 -6.828125 L 3.796875 -6.828125 Z M 3.796875 -7.84375 "/>
</g>
<g id="glyph-3-21">
<path d="M 6.046875 -7.84375 L 6.046875 -6.703125 C 5.421875 -7.65625 4.734375 -8.0625 3.734375 -8.0625 C 1.84375 -8.0625 0.53125 -6.296875 0.53125 -3.78125 C 0.53125 -2.46875 0.84375 -1.515625 1.515625 -0.71875 C 2.09375 -0.03125 2.84375 0.34375 3.65625 0.34375 C 4.59375 0.34375 5.265625 -0.078125 5.921875 -1.0625 L 5.921875 -0.65625 C 5.921875 1.4375 5.34375 2.21875 3.78125 2.21875 C 2.71875 2.21875 2.171875 1.796875 2.046875 0.890625 L 0.78125 0.890625 C 0.890625 2.34375 2.046875 3.265625 3.75 3.265625 C 4.90625 3.265625 5.875 2.890625 6.375 2.265625 C 6.96875 1.53125 7.203125 0.546875 7.203125 -1.28125 L 7.203125 -7.84375 Z M 3.859375 -6.921875 C 5.171875 -6.921875 5.921875 -5.8125 5.921875 -3.8125 C 5.921875 -1.921875 5.171875 -0.8125 3.859375 -0.8125 C 2.578125 -0.8125 1.828125 -1.9375 1.828125 -3.859375 C 1.828125 -5.78125 2.578125 -6.921875 3.859375 -6.921875 Z M 3.859375 -6.921875 "/>
</g>
<g id="glyph-3-22">
<path d="M 2.75 -4.625 L 6.1875 -4.625 C 7.03125 -4.625 7.703125 -4.875 8.296875 -5.40625 C 8.953125 -6 9.234375 -6.703125 9.234375 -7.703125 C 9.234375 -9.765625 8.015625 -10.90625 5.875 -10.90625 L 1.359375 -10.90625 L 1.359375 0 L 2.75 0 Z M 2.75 -5.859375 L 2.75 -9.6875 L 5.65625 -9.6875 C 6.984375 -9.6875 7.78125 -8.96875 7.78125 -7.765625 C 7.78125 -6.578125 6.984375 -5.859375 5.65625 -5.859375 Z M 2.75 -5.859375 "/>
</g>
<g id="glyph-4-0">
<path d="M 8.8125 -6.78125 L 8.5625 -5.71875 L 7.03125 -5.71875 C 6.90625 -5.382812 6.617188 -4.359375 6.171875 -2.640625 C 6.054688 -2.179688 6 -1.847656 6 -1.640625 C 6 -1.316406 6.097656 -1.113281 6.296875 -1.03125 C 6.492188 -0.945312 6.84375 -0.90625 7.34375 -0.90625 L 7.28125 -0.65625 L 6.5 0.15625 C 5.945312 0.144531 5.515625 0.0390625 5.203125 -0.15625 C 4.890625 -0.363281 4.734375 -0.722656 4.734375 -1.234375 C 4.734375 -1.484375 4.765625 -1.742188 4.828125 -2.015625 C 4.929688 -2.441406 5.113281 -3.113281 5.375 -4.03125 C 5.632812 -4.957031 5.800781 -5.519531 5.875 -5.71875 L 4.578125 -5.71875 C 4.347656 -4.820312 4.125 -4.046875 3.90625 -3.390625 C 3.6875 -2.734375 3.425781 -2.125 3.125 -1.5625 C 2.832031 -1 2.5 -0.570312 2.125 -0.28125 C 1.75 0.0078125 1.335938 0.15625 0.890625 0.15625 L 0.671875 -0.90625 C 1.242188 -0.9375 1.722656 -1.28125 2.109375 -1.9375 C 2.492188 -2.59375 2.921875 -3.851562 3.390625 -5.71875 C 2.878906 -5.675781 2.421875 -5.28125 2.015625 -4.53125 L 1.21875 -5.046875 C 1.613281 -5.742188 2.035156 -6.207031 2.484375 -6.4375 C 2.929688 -6.664062 3.519531 -6.78125 4.25 -6.78125 Z M 8.8125 -6.78125 "/>
</g>
<g id="glyph-5-0">
<path d="M 5 -3.453125 C 5 -2.816406 4.921875 -2.238281 4.765625 -1.71875 C 4.617188 -1.195312 4.359375 -0.753906 3.984375 -0.390625 C 3.617188 -0.0351562 3.164062 0.140625 2.625 0.140625 C 2.1875 0.140625 1.804688 0.0351562 1.484375 -0.171875 C 1.171875 -0.390625 0.925781 -0.679688 0.75 -1.046875 C 0.582031 -1.421875 0.453125 -1.8125 0.359375 -2.21875 C 0.273438 -2.625 0.234375 -3.054688 0.234375 -3.515625 C 0.234375 -4.171875 0.3125 -4.757812 0.46875 -5.28125 C 0.632812 -5.800781 0.90625 -6.234375 1.28125 -6.578125 C 1.664062 -6.921875 2.125 -7.09375 2.65625 -7.09375 C 3.34375 -7.09375 3.90625 -6.753906 4.34375 -6.078125 C 4.78125 -5.398438 5 -4.523438 5 -3.453125 Z M 4.171875 -3.453125 C 4.171875 -4.304688 4.03125 -5 3.75 -5.53125 C 3.46875 -6.070312 3.097656 -6.34375 2.640625 -6.34375 C 2.117188 -6.34375 1.722656 -6.070312 1.453125 -5.53125 C 1.191406 -4.988281 1.0625 -4.3125 1.0625 -3.5 C 1.0625 -3.132812 1.085938 -2.789062 1.140625 -2.46875 C 1.203125 -2.144531 1.289062 -1.835938 1.40625 -1.546875 C 1.519531 -1.253906 1.679688 -1.019531 1.890625 -0.84375 C 2.097656 -0.675781 2.34375 -0.59375 2.625 -0.59375 C 2.976562 -0.59375 3.273438 -0.734375 3.515625 -1.015625 C 3.753906 -1.304688 3.921875 -1.660156 4.015625 -2.078125 C 4.117188 -2.492188 4.171875 -2.953125 4.171875 -3.453125 Z M 4.171875 -3.453125 "/>
</g>
<g id="glyph-5-1">
<path d="M 4.796875 -7.09375 L 4.46875 -6.34375 L 2.609375 -6.34375 L 1.9375 -5.015625 C 2.738281 -4.898438 3.394531 -4.613281 3.90625 -4.15625 C 4.414062 -3.707031 4.671875 -3.113281 4.671875 -2.375 C 4.671875 -1.675781 4.4375 -1.082031 3.96875 -0.59375 C 3.5 -0.101562 2.910156 0.140625 2.203125 0.140625 C 1.429688 0.140625 0.820312 -0.101562 0.375 -0.59375 L 0.875 -1.171875 C 1.226562 -0.785156 1.65625 -0.59375 2.15625 -0.59375 C 2.664062 -0.59375 3.070312 -0.769531 3.375 -1.125 C 3.6875 -1.476562 3.84375 -1.894531 3.84375 -2.375 C 3.84375 -2.882812 3.613281 -3.320312 3.15625 -3.6875 C 2.6875 -4.070312 1.960938 -4.265625 0.984375 -4.265625 L 0.84375 -4.453125 L 2.0625 -7.09375 Z M 4.796875 -7.09375 "/>
</g>
<g id="glyph-6-0">
<path d="M 1.890625 -0.453125 C 1.890625 -0.296875 1.832031 -0.160156 1.71875 -0.046875 C 1.601562 0.0546875 1.460938 0.109375 1.296875 0.109375 C 1.140625 0.109375 1.003906 0.0546875 0.890625 -0.046875 C 0.785156 -0.160156 0.734375 -0.296875 0.734375 -0.453125 C 0.734375 -0.617188 0.789062 -0.757812 0.90625 -0.875 C 1.019531 -0.988281 1.160156 -1.046875 1.328125 -1.046875 C 1.472656 -1.046875 1.601562 -0.984375 1.71875 -0.859375 C 1.832031 -0.742188 1.890625 -0.609375 1.890625 -0.453125 Z M 1.890625 -0.453125 "/>
</g>
</g>
<clipPath id="clip-0">
<path clip-rule="nonzero" d="M 0.421875 0 L 819.929688 0 L 819.929688 237.035156 L 0.421875 237.035156 Z M 0.421875 0 "/>
</clipPath>
<clipPath id="clip-1">
<path clip-rule="nonzero" d="M 49.039062 190 L 812.746094 190 L 812.746094 190.402344 L 49.039062 190.402344 Z M 49.039062 190 "/>
</clipPath>
<clipPath id="clip-2">
<path clip-rule="nonzero" d="M 49.039062 152 L 812.746094 152 L 812.746094 154 L 49.039062 154 Z M 49.039062 152 "/>
</clipPath>
<clipPath id="clip-3">
<path clip-rule="nonzero" d="M 49.039062 115 L 812.746094 115 L 812.746094 117 L 49.039062 117 Z M 49.039062 115 "/>
</clipPath>
<clipPath id="clip-4">
<path clip-rule="nonzero" d="M 49.039062 78 L 812.746094 78 L 812.746094 80 L 49.039062 80 Z M 49.039062 78 "/>
</clipPath>
<clipPath id="clip-5">
<path clip-rule="nonzero" d="M 49.039062 41.789062 L 812.746094 41.789062 L 812.746094 43 L 49.039062 43 Z M 49.039062 41.789062 "/>
</clipPath>
<clipPath id="clip-6">
<path clip-rule="nonzero" d="M 248 41.789062 L 251 41.789062 L 251 190.402344 L 248 190.402344 Z M 248 41.789062 "/>
</clipPath>
<clipPath id="clip-7">
<path clip-rule="nonzero" d="M 115 59 L 144 59 L 144 190.402344 L 115 190.402344 Z M 115 59 "/>
</clipPath>
<clipPath id="clip-8">
<path clip-rule="nonzero" d="M 114 59 L 145 59 L 145 190.402344 L 114 190.402344 Z M 114 59 "/>
</clipPath>
<clipPath id="clip-9">
<path clip-rule="nonzero" d="M 297 63 L 326 63 L 326 190.402344 L 297 190.402344 Z M 297 63 "/>
</clipPath>
<clipPath id="clip-10">
<path clip-rule="nonzero" d="M 296 63 L 327 63 L 327 190.402344 L 296 190.402344 Z M 296 63 "/>
</clipPath>
<clipPath id="clip-11">
<path clip-rule="nonzero" d="M 479 62 L 508 62 L 508 190.402344 L 479 190.402344 Z M 479 62 "/>
</clipPath>
<clipPath id="clip-12">
<path clip-rule="nonzero" d="M 478 61 L 509 61 L 509 190.402344 L 478 190.402344 Z M 478 61 "/>
</clipPath>
<clipPath id="clip-13">
<path clip-rule="nonzero" d="M 660 68 L 690 68 L 690 190.402344 L 660 190.402344 Z M 660 68 "/>
</clipPath>
<clipPath id="clip-14">
<path clip-rule="nonzero" d="M 660 68 L 691 68 L 691 190.402344 L 660 190.402344 Z M 660 68 "/>
</clipPath>
<clipPath id="clip-15">
<path clip-rule="nonzero" d="M 143 57 L 173 57 L 173 190.402344 L 143 190.402344 Z M 143 57 "/>
</clipPath>
<clipPath id="clip-16">
<path clip-rule="nonzero" d="M 325 87 L 355 87 L 355 190.402344 L 325 190.402344 Z M 325 87 "/>
</clipPath>
<clipPath id="clip-17">
<path clip-rule="nonzero" d="M 507 87 L 537 87 L 537 190.402344 L 507 190.402344 Z M 507 87 "/>
</clipPath>
<clipPath id="clip-18">
<path clip-rule="nonzero" d="M 506 86 L 537 86 L 537 190.402344 L 506 190.402344 Z M 506 86 "/>
</clipPath>
<clipPath id="clip-19">
<path clip-rule="nonzero" d="M 689 109 L 718 109 L 718 190.402344 L 689 190.402344 Z M 689 109 "/>
</clipPath>
<clipPath id="clip-20">
<path clip-rule="nonzero" d="M 688 108 L 719 108 L 719 190.402344 L 688 190.402344 Z M 688 108 "/>
</clipPath>
<clipPath id="clip-21">
<path clip-rule="nonzero" d="M 172 59 L 201 59 L 201 190.402344 L 172 190.402344 Z M 172 59 "/>
</clipPath>
<clipPath id="clip-22">
<path clip-rule="nonzero" d="M 171 59 L 202 59 L 202 190.402344 L 171 190.402344 Z M 171 59 "/>
</clipPath>
<clipPath id="clip-23">
<path clip-rule="nonzero" d="M 354 99 L 383 99 L 383 190.402344 L 354 190.402344 Z M 354 99 "/>
</clipPath>
<clipPath id="clip-24">
<path clip-rule="nonzero" d="M 353 99 L 384 99 L 384 190.402344 L 353 190.402344 Z M 353 99 "/>
</clipPath>
<clipPath id="clip-25">
<path clip-rule="nonzero" d="M 536 88 L 565 88 L 565 190.402344 L 536 190.402344 Z M 536 88 "/>
</clipPath>
<clipPath id="clip-26">
<path clip-rule="nonzero" d="M 535 88 L 566 88 L 566 190.402344 L 535 190.402344 Z M 535 88 "/>
</clipPath>
<clipPath id="clip-27">
<path clip-rule="nonzero" d="M 717 100 L 747 100 L 747 190.402344 L 717 190.402344 Z M 717 100 "/>
</clipPath>
</defs>
<g clip-path="url(#clip-0)">
<path fill-rule="nonzero" fill="rgb(100%, 100%, 100%)" fill-opacity="1" d="M 0.421875 237.035156 L 819.929688 237.035156 L 819.929688 0 L 0.421875 0 Z M 0.421875 237.035156 "/>
</g>
<path fill-rule="nonzero" fill="rgb(100%, 100%, 100%)" fill-opacity="1" d="M 49.039062 190.402344 L 812.746094 190.402344 L 812.746094 41.789062 L 49.039062 41.789062 Z M 49.039062 190.402344 "/>
<g fill="rgb(0%, 0%, 0%)" fill-opacity="1">
<use xlink:href="#glyph-0-0" x="135.779152" y="209.304041"/>
</g>
<g fill="rgb(0%, 0%, 0%)" fill-opacity="1">
<use xlink:href="#glyph-0-1" x="145.867982" y="209.304041"/>
</g>
<g fill="rgb(0%, 0%, 0%)" fill-opacity="1">
<use xlink:href="#glyph-0-2" x="150.2029" y="209.304041"/>
</g>
<g fill="rgb(0%, 0%, 0%)" fill-opacity="1">
<use xlink:href="#glyph-0-3" x="153.072059" y="209.304041"/>
</g>
<g fill="rgb(0%, 0%, 0%)" fill-opacity="1">
<use xlink:href="#glyph-0-2" x="160.291729" y="209.304041"/>
</g>
<g fill="rgb(0%, 0%, 0%)" fill-opacity="1">
<use xlink:href="#glyph-0-4" x="163.176482" y="209.304041"/>
</g>
<g fill="rgb(0%, 0%, 0%)" fill-opacity="1">
<use xlink:href="#glyph-0-5" x="170.396152" y="209.304041"/>
</g>
<g fill="rgb(0%, 0%, 0%)" fill-opacity="1">
<use xlink:href="#glyph-0-6" x="177.615822" y="209.304041"/>
</g>
<g fill="rgb(0%, 0%, 0%)" fill-opacity="1">
<use xlink:href="#glyph-0-7" x="136.496443" y="225.03565"/>
</g>
<g fill="rgb(0%, 0%, 0%)" fill-opacity="1">
<use xlink:href="#glyph-0-1" x="146.585272" y="225.03565"/>
</g>
<g fill="rgb(0%, 0%, 0%)" fill-opacity="1">
<use xlink:href="#glyph-0-2" x="150.92019" y="225.03565"/>
</g>
<g fill="rgb(0%, 0%, 0%)" fill-opacity="1">
<use xlink:href="#glyph-0-8" x="153.804943" y="225.03565"/>
</g>
<g fill="rgb(0%, 0%, 0%)" fill-opacity="1">
<use xlink:href="#glyph-0-8" x="161.024613" y="225.03565"/>
</g>
<g fill="rgb(0%, 0%, 0%)" fill-opacity="1">
<use xlink:href="#glyph-0-9" x="168.244283" y="225.03565"/>
</g>
<g fill="rgb(0%, 0%, 0%)" fill-opacity="1">
<use xlink:href="#glyph-0-1" x="175.463953" y="225.03565"/>
</g>
<g fill="rgb(0%, 0%, 0%)" fill-opacity="1">
<use xlink:href="#glyph-0-10" x="304.640202" y="209.304041"/>
</g>
<g fill="rgb(0%, 0%, 0%)" fill-opacity="1">
<use xlink:href="#glyph-0-11" x="314.011753" y="209.304041"/>
</g>
<g fill="rgb(0%, 0%, 0%)" fill-opacity="1">
<use xlink:href="#glyph-0-12" x="324.817877" y="209.304041"/>
</g>
<g fill="rgb(0%, 0%, 0%)" fill-opacity="1">
<use xlink:href="#glyph-0-13" x="328.419923" y="209.304041"/>
</g>
<g fill="rgb(0%, 0%, 0%)" fill-opacity="1">
<use xlink:href="#glyph-0-7" x="332.021969" y="209.304041"/>
</g>
<g fill="rgb(0%, 0%, 0%)" fill-opacity="1">
<use xlink:href="#glyph-0-1" x="342.110798" y="209.304041"/>
</g>
<g fill="rgb(0%, 0%, 0%)" fill-opacity="1">
<use xlink:href="#glyph-0-2" x="346.445716" y="209.304041"/>
</g>
<g fill="rgb(0%, 0%, 0%)" fill-opacity="1">
<use xlink:href="#glyph-0-8" x="349.330468" y="209.304041"/>
</g>
<g fill="rgb(0%, 0%, 0%)" fill-opacity="1">
<use xlink:href="#glyph-0-8" x="356.550138" y="209.304041"/>
</g>
<g fill="rgb(0%, 0%, 0%)" fill-opacity="1">
<use xlink:href="#glyph-0-9" x="363.769808" y="209.304041"/>
</g>
<g fill="rgb(0%, 0%, 0%)" fill-opacity="1">
<use xlink:href="#glyph-0-1" x="370.989478" y="209.304041"/>
</g>
<g fill="rgb(0%, 0%, 0%)" fill-opacity="1">
<use xlink:href="#glyph-0-14" x="313.325651" y="224.879718"/>
</g>
<g fill="rgb(0%, 0%, 0%)" fill-opacity="1">
<use xlink:href="#glyph-0-10" x="317.644976" y="224.879718"/>
</g>
<g fill="rgb(0%, 0%, 0%)" fill-opacity="1">
<use xlink:href="#glyph-0-4" x="326.938561" y="224.879718"/>
</g>
<g fill="rgb(0%, 0%, 0%)" fill-opacity="1">
<use xlink:href="#glyph-0-15" x="334.158231" y="224.879718"/>
<use xlink:href="#glyph-0-9" x="340.645029" y="224.879718"/>
</g>
<g fill="rgb(0%, 0%, 0%)" fill-opacity="1">
<use xlink:href="#glyph-0-9" x="347.864699" y="224.879718"/>
</g>
<g fill="rgb(0%, 0%, 0%)" fill-opacity="1">
<use xlink:href="#glyph-0-4" x="355.084369" y="224.879718"/>
</g>
<g fill="rgb(0%, 0%, 0%)" fill-opacity="1">
<use xlink:href="#glyph-0-16" x="362.304039" y="224.879718"/>
</g>
<g fill="rgb(0%, 0%, 0%)" fill-opacity="1">
<use xlink:href="#glyph-0-17" x="494.661314" y="209.148108"/>
</g>
<g fill="rgb(0%, 0%, 0%)" fill-opacity="1">
<use xlink:href="#glyph-0-18" x="502.11489" y="209.148108"/>
</g>
<g fill="rgb(0%, 0%, 0%)" fill-opacity="1">
<use xlink:href="#glyph-0-11" x="510.769147" y="209.148108"/>
</g>
<g fill="rgb(0%, 0%, 0%)" fill-opacity="1">
<use xlink:href="#glyph-0-13" x="521.57527" y="209.148108"/>
</g>
<g fill="rgb(0%, 0%, 0%)" fill-opacity="1">
<use xlink:href="#glyph-0-18" x="525.177316" y="209.148108"/>
</g>
<g fill="rgb(0%, 0%, 0%)" fill-opacity="1">
<use xlink:href="#glyph-0-1" x="533.831573" y="209.148108"/>
</g>
<g fill="rgb(0%, 0%, 0%)" fill-opacity="1">
<use xlink:href="#glyph-0-19" x="538.150898" y="209.148108"/>
</g>
<g fill="rgb(0%, 0%, 0%)" fill-opacity="1">
<use xlink:href="#glyph-0-14" x="495.160298" y="224.723785"/>
</g>
<g fill="rgb(0%, 0%, 0%)" fill-opacity="1">
<use xlink:href="#glyph-0-10" x="499.479623" y="224.723785"/>
</g>
<g fill="rgb(0%, 0%, 0%)" fill-opacity="1">
<use xlink:href="#glyph-0-4" x="508.773208" y="224.723785"/>
</g>
<g fill="rgb(0%, 0%, 0%)" fill-opacity="1">
<use xlink:href="#glyph-0-15" x="515.992878" y="224.723785"/>
<use xlink:href="#glyph-0-9" x="522.479676" y="224.723785"/>
</g>
<g fill="rgb(0%, 0%, 0%)" fill-opacity="1">
<use xlink:href="#glyph-0-9" x="529.699346" y="224.723785"/>
</g>
<g fill="rgb(0%, 0%, 0%)" fill-opacity="1">
<use xlink:href="#glyph-0-4" x="536.919016" y="224.723785"/>
</g>
<g fill="rgb(0%, 0%, 0%)" fill-opacity="1">
<use xlink:href="#glyph-0-16" x="544.138686" y="224.723785"/>
</g>
<g fill="rgb(0%, 0%, 0%)" fill-opacity="1">
<use xlink:href="#glyph-0-20" x="665.432539" y="209.304041"/>
</g>
<g fill="rgb(0%, 0%, 0%)" fill-opacity="1">
<use xlink:href="#glyph-0-21" x="674.024423" y="209.304041"/>
</g>
<g fill="rgb(0%, 0%, 0%)" fill-opacity="1">
<use xlink:href="#glyph-0-5" x="681.244093" y="209.304041"/>
</g>
<g fill="rgb(0%, 0%, 0%)" fill-opacity="1">
<use xlink:href="#glyph-0-1" x="688.463763" y="209.304041"/>
</g>
<g fill="rgb(0%, 0%, 0%)" fill-opacity="1">
<use xlink:href="#glyph-0-8" x="692.876647" y="209.304041"/>
</g>
<g fill="rgb(0%, 0%, 0%)" fill-opacity="1">
<use xlink:href="#glyph-0-5" x="700.096317" y="209.304041"/>
</g>
<g fill="rgb(0%, 0%, 0%)" fill-opacity="1">
<use xlink:href="#glyph-0-13" x="707.315987" y="209.304041"/>
</g>
<g fill="rgb(0%, 0%, 0%)" fill-opacity="1">
<use xlink:href="#glyph-0-22" x="710.918033" y="209.304041"/>
</g>
<g fill="rgb(0%, 0%, 0%)" fill-opacity="1">
<use xlink:href="#glyph-0-5" x="720.196025" y="209.304041"/>
</g>
<g fill="rgb(0%, 0%, 0%)" fill-opacity="1">
<use xlink:href="#glyph-0-4" x="727.415695" y="209.304041"/>
</g>
<g fill="rgb(0%, 0%, 0%)" fill-opacity="1">
<use xlink:href="#glyph-0-23" x="734.635365" y="209.304041"/>
</g>
<g fill="rgb(0%, 0%, 0%)" fill-opacity="1">
<use xlink:href="#glyph-0-14" x="676.994945" y="224.879718"/>
</g>
<g fill="rgb(0%, 0%, 0%)" fill-opacity="1">
<use xlink:href="#glyph-0-10" x="681.31427" y="224.879718"/>
</g>
<g fill="rgb(0%, 0%, 0%)" fill-opacity="1">
<use xlink:href="#glyph-0-4" x="690.607855" y="224.879718"/>
</g>
<g fill="rgb(0%, 0%, 0%)" fill-opacity="1">
<use xlink:href="#glyph-0-15" x="697.827525" y="224.879718"/>
<use xlink:href="#glyph-0-9" x="704.314323" y="224.879718"/>
</g>
<g fill="rgb(0%, 0%, 0%)" fill-opacity="1">
<use xlink:href="#glyph-0-9" x="711.533993" y="224.879718"/>
</g>
<g fill="rgb(0%, 0%, 0%)" fill-opacity="1">
<use xlink:href="#glyph-0-4" x="718.753663" y="224.879718"/>
</g>
<g fill="rgb(0%, 0%, 0%)" fill-opacity="1">
<use xlink:href="#glyph-0-16" x="725.973333" y="224.879718"/>
</g>
<g clip-path="url(#clip-1)">
<path fill="none" stroke-width="0.8" stroke-linecap="butt" stroke-linejoin="round" stroke="rgb(81.175232%, 81.175232%, 81.175232%)" stroke-opacity="1" stroke-dasharray="0.8 1.32" stroke-miterlimit="10" d="M 48.71558 46.726789 L 813.976847 46.726789 " transform="matrix(0.997969, 0, 0, -0.997969, 0.422423, 237.034232)"/>
</g>
<g fill="rgb(0%, 0%, 0%)" fill-opacity="1">
<use xlink:href="#glyph-1-0" x="38.887891" y="194.767001"/>
</g>
<g clip-path="url(#clip-2)">
<path fill="none" stroke-width="0.8" stroke-linecap="butt" stroke-linejoin="round" stroke="rgb(81.175232%, 81.175232%, 81.175232%)" stroke-opacity="1" stroke-dasharray="0.8 1.32" stroke-miterlimit="10" d="M 48.71558 83.954743 L 813.976847 83.954743 " transform="matrix(0.997969, 0, 0, -0.997969, 0.422423, 237.034232)"/>
</g>
<g fill="rgb(0%, 0%, 0%)" fill-opacity="1">
<use xlink:href="#glyph-1-1" x="32.229567" y="157.613862"/>
</g>
<g fill="rgb(0%, 0%, 0%)" fill-opacity="1">
<use xlink:href="#glyph-1-2" x="38.887849" y="157.613862"/>
</g>
<g clip-path="url(#clip-3)">
<path fill="none" stroke-width="0.8" stroke-linecap="butt" stroke-linejoin="round" stroke="rgb(81.175232%, 81.175232%, 81.175232%)" stroke-opacity="1" stroke-dasharray="0.8 1.32" stroke-miterlimit="10" d="M 48.71558 121.18661 L 813.976847 121.18661 " transform="matrix(0.997969, 0, 0, -0.997969, 0.422423, 237.034232)"/>
</g>
<g fill="rgb(0%, 0%, 0%)" fill-opacity="1">
<use xlink:href="#glyph-1-2" x="32.229567" y="120.460723"/>
</g>
<g fill="rgb(0%, 0%, 0%)" fill-opacity="1">
<use xlink:href="#glyph-1-0" x="38.887849" y="120.460723"/>
</g>
<g clip-path="url(#clip-4)">
<path fill="none" stroke-width="0.8" stroke-linecap="butt" stroke-linejoin="round" stroke="rgb(81.175232%, 81.175232%, 81.175232%)" stroke-opacity="1" stroke-dasharray="0.8 1.32" stroke-miterlimit="10" d="M 48.71558 158.414563 L 813.976847 158.414563 " transform="matrix(0.997969, 0, 0, -0.997969, 0.422423, 237.034232)"/>
</g>
<g fill="rgb(0%, 0%, 0%)" fill-opacity="1">
<use xlink:href="#glyph-1-3" x="32.229567" y="83.307584"/>
</g>
<g fill="rgb(0%, 0%, 0%)" fill-opacity="1">
<use xlink:href="#glyph-1-2" x="38.887849" y="83.307584"/>
</g>
<g clip-path="url(#clip-5)">
<path fill="none" stroke-width="0.8" stroke-linecap="butt" stroke-linejoin="round" stroke="rgb(81.175232%, 81.175232%, 81.175232%)" stroke-opacity="1" stroke-dasharray="0.8 1.32" stroke-miterlimit="10" d="M 48.71558 195.642517 L 813.976847 195.642517 " transform="matrix(0.997969, 0, 0, -0.997969, 0.422423, 237.034232)"/>
</g>
<g fill="rgb(0%, 0%, 0%)" fill-opacity="1">
<use xlink:href="#glyph-1-4" x="25.571242" y="46.154445"/>
</g>
<g fill="rgb(0%, 0%, 0%)" fill-opacity="1">
<use xlink:href="#glyph-1-0" x="32.229524" y="46.154445"/>
</g>
<g fill="rgb(0%, 0%, 0%)" fill-opacity="1">
<use xlink:href="#glyph-1-0" x="38.887806" y="46.154445"/>
</g>
<g fill="rgb(0%, 0%, 0%)" fill-opacity="1">
<use xlink:href="#glyph-2-0" x="17.793072" y="181.45478"/>
</g>
<g fill="rgb(0%, 0%, 0%)" fill-opacity="1">
<use xlink:href="#glyph-2-1" x="17.793072" y="172.550992"/>
</g>
<g fill="rgb(0%, 0%, 0%)" fill-opacity="1">
<use xlink:href="#glyph-2-2" x="17.793072" y="165.783485"/>
</g>
<g fill="rgb(0%, 0%, 0%)" fill-opacity="1">
<use xlink:href="#glyph-2-3" x="17.793072" y="158.28309"/>
</g>
<g fill="rgb(0%, 0%, 0%)" fill-opacity="1">
<use xlink:href="#glyph-2-4" x="17.793072" y="154.40035"/>
</g>
<g fill="rgb(0%, 0%, 0%)" fill-opacity="1">
<use xlink:href="#glyph-2-5" x="17.793072" y="150.51761"/>
</g>
<g fill="rgb(0%, 0%, 0%)" fill-opacity="1">
<use xlink:href="#glyph-2-6" x="17.793072" y="141.192804"/>
</g>
<g fill="rgb(0%, 0%, 0%)" fill-opacity="1">
<use xlink:href="#glyph-2-7" x="17.793072" y="136.623964"/>
</g>
<g fill="rgb(0%, 0%, 0%)" fill-opacity="1">
<use xlink:href="#glyph-2-2" x="17.793072" y="128.858484"/>
</g>
<g fill="rgb(0%, 0%, 0%)" fill-opacity="1">
<use xlink:href="#glyph-2-6" x="17.793072" y="121.186563"/>
</g>
<g fill="rgb(0%, 0%, 0%)" fill-opacity="1">
<use xlink:href="#glyph-2-8" x="17.793072" y="116.680097"/>
</g>
<g fill="rgb(0%, 0%, 0%)" fill-opacity="1">
<use xlink:href="#glyph-2-9" x="17.793072" y="108.976989"/>
</g>
<g fill="rgb(0%, 0%, 0%)" fill-opacity="1">
<use xlink:href="#glyph-2-9" x="17.793072" y="101.959989"/>
</g>
<g fill="rgb(0%, 0%, 0%)" fill-opacity="1">
<use xlink:href="#glyph-2-10" x="17.793072" y="94.974176"/>
</g>
<g fill="rgb(0%, 0%, 0%)" fill-opacity="1">
<use xlink:href="#glyph-2-7" x="17.793072" y="91.871102"/>
</g>
<g fill="rgb(0%, 0%, 0%)" fill-opacity="1">
<use xlink:href="#glyph-2-11" x="17.793072" y="84.105622"/>
</g>
<g fill="rgb(0%, 0%, 0%)" fill-opacity="1">
<use xlink:href="#glyph-2-4" x="17.793072" y="76.340142"/>
</g>
<g fill="rgb(0%, 0%, 0%)" fill-opacity="1">
<use xlink:href="#glyph-2-12" x="17.793072" y="72.457402"/>
</g>
<g fill="rgb(0%, 0%, 0%)" fill-opacity="1">
<use xlink:href="#glyph-2-13" x="17.793072" y="67.810596"/>
</g>
<g fill="rgb(0%, 0%, 0%)" fill-opacity="1">
<use xlink:href="#glyph-2-14" x="17.793072" y="55.382716"/>
</g>
<g clip-path="url(#clip-6)">
<path fill="none" stroke-width="2" stroke-linecap="butt" stroke-linejoin="round" stroke="rgb(74.900818%, 74.900818%, 74.900818%)" stroke-opacity="1" stroke-dasharray="12 8" stroke-miterlimit="10" d="M 249.142175 46.726789 L 249.142175 195.642517 " transform="matrix(0.997969, 0, 0, -0.997969, 0.422423, 237.034232)"/>
</g>
<path fill="none" stroke-width="0.8" stroke-linecap="square" stroke-linejoin="miter" stroke="rgb(19.999695%, 19.999695%, 19.999695%)" stroke-opacity="1" stroke-miterlimit="10" d="M 48.71558 46.726789 L 48.71558 195.642517 " transform="matrix(0.997969, 0, 0, -0.997969, 0.422423, 237.034232)"/>
<path fill="none" stroke-width="0.8" stroke-linecap="square" stroke-linejoin="miter" stroke="rgb(19.999695%, 19.999695%, 19.999695%)" stroke-opacity="1" stroke-miterlimit="10" d="M 48.71558 46.726789 L 813.976847 46.726789 " transform="matrix(0.997969, 0, 0, -0.997969, 0.422423, 237.034232)"/>
<g clip-path="url(#clip-7)">
<path fill-rule="nonzero" fill="rgb(88.626099%, 47.058105%, 23.529053%)" fill-opacity="1" d="M 115.449219 190.402344 L 143.910156 190.402344 L 143.910156 59.621094 L 115.449219 59.621094 Z M 115.449219 190.402344 "/>
</g>
<g clip-path="url(#clip-8)">
<path fill="none" stroke-width="1.2" stroke-linecap="butt" stroke-linejoin="miter" stroke="rgb(19.999695%, 25.489807%, 30.979919%)" stroke-opacity="1" stroke-miterlimit="10" d="M 115.260889 46.726789 L 143.779748 46.726789 L 143.779748 177.774195 L 115.260889 177.774195 Z M 115.260889 46.726789 " transform="matrix(0.997969, 0, 0, -0.997969, 0.422423, 237.034232)"/>
</g>
<g clip-path="url(#clip-9)">
<path fill-rule="nonzero" fill="rgb(88.626099%, 47.058105%, 23.529053%)" fill-opacity="1" d="M 297.28125 190.402344 L 325.742188 190.402344 L 325.742188 63.933594 L 297.28125 63.933594 Z M 297.28125 190.402344 "/>
</g>
<g clip-path="url(#clip-10)">
<path fill="none" stroke-width="1.2" stroke-linecap="butt" stroke-linejoin="miter" stroke="rgb(19.999695%, 25.489807%, 30.979919%)" stroke-opacity="1" stroke-miterlimit="10" d="M 297.46297 46.726789 L 325.981829 46.726789 L 325.981829 173.452919 L 297.46297 173.452919 Z M 297.46297 46.726789 " transform="matrix(0.997969, 0, 0, -0.997969, 0.422423, 237.034232)"/>
</g>
<g clip-path="url(#clip-11)">
<path fill-rule="nonzero" fill="rgb(88.626099%, 47.058105%, 23.529053%)" fill-opacity="1" d="M 479.117188 190.402344 L 507.578125 190.402344 L 507.578125 62.148438 L 479.117188 62.148438 Z M 479.117188 190.402344 "/>
</g>
<g clip-path="url(#clip-12)">
<path fill="none" stroke-width="1.2" stroke-linecap="butt" stroke-linejoin="miter" stroke="rgb(19.999695%, 25.489807%, 30.979919%)" stroke-opacity="1" stroke-miterlimit="10" d="M 479.668966 46.726789 L 508.187825 46.726789 L 508.187825 175.241708 L 479.668966 175.241708 Z M 479.668966 46.726789 " transform="matrix(0.997969, 0, 0, -0.997969, 0.422423, 237.034232)"/>
</g>
<g clip-path="url(#clip-13)">
<path fill-rule="nonzero" fill="rgb(88.626099%, 47.058105%, 23.529053%)" fill-opacity="1" d="M 660.953125 190.402344 L 689.414062 190.402344 L 689.414062 68.835938 L 660.953125 68.835938 Z M 660.953125 190.402344 "/>
</g>
<g clip-path="url(#clip-14)">
<path fill="none" stroke-width="1.2" stroke-linecap="butt" stroke-linejoin="miter" stroke="rgb(19.999695%, 25.489807%, 30.979919%)" stroke-opacity="1" stroke-miterlimit="10" d="M 661.874961 46.726789 L 690.39382 46.726789 L 690.39382 168.540598 L 661.874961 168.540598 Z M 661.874961 46.726789 " transform="matrix(0.997969, 0, 0, -0.997969, 0.422423, 237.034232)"/>
</g>
<g fill="rgb(0%, 0%, 0%)" fill-opacity="1">
<use xlink:href="#glyph-1-5" x="123.020496" y="54.381502"/>
</g>
<g fill="rgb(0%, 0%, 0%)" fill-opacity="1">
<use xlink:href="#glyph-1-5" x="129.678778" y="54.381502"/>
</g>
<g fill="rgb(0%, 0%, 0%)" fill-opacity="1">
<use xlink:href="#glyph-1-5" x="304.855143" y="58.691266"/>
</g>
<g fill="rgb(0%, 0%, 0%)" fill-opacity="1">
<use xlink:href="#glyph-1-2" x="311.513425" y="58.691266"/>
</g>
<g fill="rgb(0%, 0%, 0%)" fill-opacity="1">
<use xlink:href="#glyph-1-5" x="486.68979" y="56.907916"/>
</g>
<g fill="rgb(0%, 0%, 0%)" fill-opacity="1">
<use xlink:href="#glyph-1-6" x="493.348072" y="56.907916"/>
</g>
<g fill="rgb(0%, 0%, 0%)" fill-opacity="1">
<use xlink:href="#glyph-1-5" x="668.524437" y="63.595481"/>
</g>
<g fill="rgb(0%, 0%, 0%)" fill-opacity="1">
<use xlink:href="#glyph-1-1" x="675.182719" y="63.595481"/>
</g>
<g clip-path="url(#clip-15)">
<path fill-rule="nonzero" fill="rgb(68.234253%, 76.861572%, 83.920288%)" fill-opacity="1" stroke-width="1.2" stroke-linecap="butt" stroke-linejoin="miter" stroke="rgb(19.999695%, 25.489807%, 30.979919%)" stroke-opacity="1" stroke-miterlimit="10" d="M 143.779748 46.726789 L 172.298607 46.726789 L 172.298607 179.70781 L 143.779748 179.70781 Z M 143.779748 46.726789 " transform="matrix(0.997969, 0, 0, -0.997969, 0.422423, 237.034232)"/>
</g>
<g clip-path="url(#clip-16)">
<path fill-rule="nonzero" fill="rgb(68.234253%, 76.861572%, 83.920288%)" fill-opacity="1" stroke-width="1.2" stroke-linecap="butt" stroke-linejoin="miter" stroke="rgb(19.999695%, 25.489807%, 30.979919%)" stroke-opacity="1" stroke-miterlimit="10" d="M 325.981829 46.726789 L 354.504602 46.726789 L 354.504602 149.478446 L 325.981829 149.478446 Z M 325.981829 46.726789 " transform="matrix(0.997969, 0, 0, -0.997969, 0.422423, 237.034232)"/>
</g>
<g clip-path="url(#clip-17)">
<path fill-rule="nonzero" fill="rgb(68.234253%, 76.861572%, 83.920288%)" fill-opacity="1" d="M 507.578125 190.402344 L 536.039062 190.402344 L 536.039062 87.117188 L 507.578125 87.117188 Z M 507.578125 190.402344 "/>
</g>
<g clip-path="url(#clip-18)">
<path fill="none" stroke-width="1.2" stroke-linecap="butt" stroke-linejoin="miter" stroke="rgb(19.999695%, 25.489807%, 30.979919%)" stroke-opacity="1" stroke-miterlimit="10" d="M 508.187825 46.726789 L 536.706684 46.726789 L 536.706684 150.222144 L 508.187825 150.222144 Z M 508.187825 46.726789 " transform="matrix(0.997969, 0, 0, -0.997969, 0.422423, 237.034232)"/>
</g>
<g clip-path="url(#clip-19)">
<path fill-rule="nonzero" fill="rgb(68.234253%, 76.861572%, 83.920288%)" fill-opacity="1" d="M 689.414062 190.402344 L 717.875 190.402344 L 717.875 109.558594 L 689.414062 109.558594 Z M 689.414062 190.402344 "/>
</g>
<g clip-path="url(#clip-20)">
<path fill="none" stroke-width="1.2" stroke-linecap="butt" stroke-linejoin="miter" stroke="rgb(19.999695%, 25.489807%, 30.979919%)" stroke-opacity="1" stroke-miterlimit="10" d="M 690.39382 46.726789 L 718.912679 46.726789 L 718.912679 127.735066 L 690.39382 127.735066 Z M 690.39382 46.726789 " transform="matrix(0.997969, 0, 0, -0.997969, 0.422423, 237.034232)"/>
</g>
<g fill="rgb(0%, 0%, 0%)" fill-opacity="1">
<use xlink:href="#glyph-1-5" x="151.481571" y="52.449539"/>
</g>
<g fill="rgb(0%, 0%, 0%)" fill-opacity="1">
<use xlink:href="#glyph-1-7" x="158.139853" y="52.449539"/>
</g>
<g fill="rgb(0%, 0%, 0%)" fill-opacity="1">
<use xlink:href="#glyph-1-6" x="333.316218" y="82.617888"/>
</g>
<g fill="rgb(0%, 0%, 0%)" fill-opacity="1">
<use xlink:href="#glyph-1-7" x="339.9745" y="82.617888"/>
</g>
<g fill="rgb(0%, 0%, 0%)" fill-opacity="1">
<use xlink:href="#glyph-1-3" x="515.150865" y="81.874825"/>
</g>
<g fill="rgb(0%, 0%, 0%)" fill-opacity="1">
<use xlink:href="#glyph-1-0" x="521.809147" y="81.874825"/>
</g>
<g fill="rgb(0%, 0%, 0%)" fill-opacity="1">
<use xlink:href="#glyph-1-2" x="696.985512" y="104.315321"/>
</g>
<g fill="rgb(0%, 0%, 0%)" fill-opacity="1">
<use xlink:href="#glyph-1-8" x="703.643794" y="104.315321"/>
</g>
<g clip-path="url(#clip-21)">
<path fill-rule="nonzero" fill="rgb(27.450562%, 38.822937%, 49.803162%)" fill-opacity="1" d="M 172.371094 190.402344 L 200.832031 190.402344 L 200.832031 59.769531 L 172.371094 59.769531 Z M 172.371094 190.402344 "/>
</g>
<g clip-path="url(#clip-22)">
<path fill="none" stroke-width="1.2" stroke-linecap="butt" stroke-linejoin="miter" stroke="rgb(19.999695%, 25.489807%, 30.979919%)" stroke-opacity="1" stroke-miterlimit="10" d="M 172.298607 46.726789 L 200.817466 46.726789 L 200.817466 177.625456 L 172.298607 177.625456 Z M 172.298607 46.726789 " transform="matrix(0.997969, 0, 0, -0.997969, 0.422423, 237.034232)"/>
</g>
<g clip-path="url(#clip-23)">
<path fill-rule="nonzero" fill="rgb(27.450562%, 38.822937%, 49.803162%)" fill-opacity="1" d="M 354.207031 190.402344 L 382.667969 190.402344 L 382.667969 99.898438 L 354.207031 99.898438 Z M 354.207031 190.402344 "/>
</g>
<g clip-path="url(#clip-24)">
<path fill="none" stroke-width="1.2" stroke-linecap="butt" stroke-linejoin="miter" stroke="rgb(19.999695%, 25.489807%, 30.979919%)" stroke-opacity="1" stroke-miterlimit="10" d="M 354.504602 46.726789 L 383.023461 46.726789 L 383.023461 137.414882 L 354.504602 137.414882 Z M 354.504602 46.726789 " transform="matrix(0.997969, 0, 0, -0.997969, 0.422423, 237.034232)"/>
</g>
<g clip-path="url(#clip-25)">
<path fill-rule="nonzero" fill="rgb(27.450562%, 38.822937%, 49.803162%)" fill-opacity="1" d="M 536.039062 190.402344 L 564.5 190.402344 L 564.5 88.601562 L 536.039062 88.601562 Z M 536.039062 190.402344 "/>
</g>
<g clip-path="url(#clip-26)">
<path fill="none" stroke-width="1.2" stroke-linecap="butt" stroke-linejoin="miter" stroke="rgb(19.999695%, 25.489807%, 30.979919%)" stroke-opacity="1" stroke-miterlimit="10" d="M 536.706684 46.726789 L 565.225543 46.726789 L 565.225543 148.734748 L 536.706684 148.734748 Z M 536.706684 46.726789 " transform="matrix(0.997969, 0, 0, -0.997969, 0.422423, 237.034232)"/>
</g>
<g clip-path="url(#clip-27)">
<path fill-rule="nonzero" fill="rgb(27.450562%, 38.822937%, 49.803162%)" fill-opacity="1" stroke-width="1.2" stroke-linecap="butt" stroke-linejoin="miter" stroke="rgb(19.999695%, 25.489807%, 30.979919%)" stroke-opacity="1" stroke-miterlimit="10" d="M 718.912679 46.726789 L 747.431538 46.726789 L 747.431538 136.373705 L 718.912679 136.373705 Z M 718.912679 46.726789 " transform="matrix(0.997969, 0, 0, -0.997969, 0.422423, 237.034232)"/>
</g>
<g fill="rgb(0%, 0%, 0%)" fill-opacity="1">
<use xlink:href="#glyph-1-5" x="179.942646" y="54.530115"/>
</g>
<g fill="rgb(0%, 0%, 0%)" fill-opacity="1">
<use xlink:href="#glyph-1-5" x="186.600928" y="54.530115"/>
</g>
<g fill="rgb(0%, 0%, 0%)" fill-opacity="1">
<use xlink:href="#glyph-1-6" x="361.777293" y="94.655505"/>
</g>
<g fill="rgb(0%, 0%, 0%)" fill-opacity="1">
<use xlink:href="#glyph-1-4" x="368.435575" y="94.655505"/>
</g>
<g fill="rgb(0%, 0%, 0%)" fill-opacity="1">
<use xlink:href="#glyph-1-6" x="543.61194" y="83.36095"/>
</g>
<g fill="rgb(0%, 0%, 0%)" fill-opacity="1">
<use xlink:href="#glyph-1-7" x="550.270222" y="83.36095"/>
</g>
<g fill="rgb(0%, 0%, 0%)" fill-opacity="1">
<use xlink:href="#glyph-1-6" x="725.446587" y="95.695793"/>
</g>
<g fill="rgb(0%, 0%, 0%)" fill-opacity="1">
<use xlink:href="#glyph-1-0" x="732.104869" y="95.695793"/>
</g>
<path fill-rule="nonzero" fill="rgb(88.626099%, 47.058105%, 23.529053%)" fill-opacity="1" stroke-width="1.2" stroke-linecap="butt" stroke-linejoin="miter" stroke="rgb(19.999695%, 25.489807%, 30.979919%)" stroke-opacity="1" stroke-miterlimit="10" d="M 204.641639 213.205531 L 224.142182 213.205531 L 224.142182 223.707328 L 204.641639 223.707328 Z M 204.641639 213.205531 " transform="matrix(0.997969, 0, 0, -0.997969, 0.422423, 237.034232)"/>
<g fill="rgb(0%, 0%, 0%)" fill-opacity="1">
<use xlink:href="#glyph-3-0" x="233.091289" y="24.260003"/>
</g>
<g fill="rgb(0%, 0%, 0%)" fill-opacity="1">
<use xlink:href="#glyph-3-1" x="243.897344" y="24.260003"/>
</g>
<g fill="rgb(0%, 0%, 0%)" fill-opacity="1">
<use xlink:href="#glyph-3-2" x="247.218693" y="24.260003"/>
</g>
<g fill="rgb(0%, 0%, 0%)" fill-opacity="1">
<use xlink:href="#glyph-3-3" x="255.54544" y="24.260003"/>
</g>
<g fill="rgb(0%, 0%, 0%)" fill-opacity="1">
<use xlink:href="#glyph-3-4" x="263.872186" y="24.260003"/>
</g>
<g fill="rgb(0%, 0%, 0%)" fill-opacity="1">
<use xlink:href="#glyph-3-5" x="270.701991" y="24.260003"/>
</g>
<g fill="rgb(0%, 0%, 0%)" fill-opacity="1">
<use xlink:href="#glyph-3-6" x="275.052471" y="24.260003"/>
</g>
<g fill="rgb(0%, 0%, 0%)" fill-opacity="1">
<use xlink:href="#glyph-3-7" x="284.829383" y="24.260003"/>
</g>
<g fill="rgb(0%, 0%, 0%)" fill-opacity="1">
<use xlink:href="#glyph-3-8" x="293.390029" y="24.260003"/>
</g>
<g fill="rgb(0%, 0%, 0%)" fill-opacity="1">
<use xlink:href="#glyph-3-9" x="303.369653" y="24.260003"/>
</g>
<g fill="rgb(0%, 0%, 0%)" fill-opacity="1">
<use xlink:href="#glyph-3-10" x="307.533027" y="24.260003"/>
</g>
<g fill="rgb(0%, 0%, 0%)" fill-opacity="1">
<use xlink:href="#glyph-3-11" x="312.522831" y="24.260003"/>
</g>
<g fill="rgb(0%, 0%, 0%)" fill-opacity="1">
<use xlink:href="#glyph-3-12" x="324.170926" y="24.260003"/>
</g>
<g fill="rgb(0%, 0%, 0%)" fill-opacity="1">
<use xlink:href="#glyph-3-13" x="332.497673" y="24.260003"/>
</g>
<g fill="rgb(0%, 0%, 0%)" fill-opacity="1">
<use xlink:href="#glyph-3-14" x="337.565443" y="24.260003"/>
</g>
<g fill="rgb(0%, 0%, 0%)" fill-opacity="1">
<use xlink:href="#glyph-3-15" x="345.050165" y="24.260003"/>
</g>
<path fill-rule="nonzero" fill="rgb(68.234253%, 76.861572%, 83.920288%)" fill-opacity="1" stroke-width="1.2" stroke-linecap="butt" stroke-linejoin="miter" stroke="rgb(19.999695%, 25.489807%, 30.979919%)" stroke-opacity="1" stroke-miterlimit="10" d="M 380.330492 213.205531 L 399.831035 213.205531 L 399.831035 223.707328 L 380.330492 223.707328 Z M 380.330492 213.205531 " transform="matrix(0.997969, 0, 0, -0.997969, 0.422423, 237.034232)"/>
<g fill="rgb(0%, 0%, 0%)" fill-opacity="1">
<use xlink:href="#glyph-4-0" x="408.42197" y="24.19763"/>
</g>
<g fill="rgb(0%, 0%, 0%)" fill-opacity="1">
<use xlink:href="#glyph-5-0" x="417.115579" y="26.44306"/>
</g>
<g fill="rgb(0%, 0%, 0%)" fill-opacity="1">
<use xlink:href="#glyph-6-0" x="422.354949" y="26.44306"/>
</g>
<g fill="rgb(0%, 0%, 0%)" fill-opacity="1">
<use xlink:href="#glyph-5-1" x="424.974639" y="26.44306"/>
</g>
<g fill="rgb(0%, 0%, 0%)" fill-opacity="1">
<use xlink:href="#glyph-3-5" x="430.550822" y="24.19763"/>
</g>
<g fill="rgb(0%, 0%, 0%)" fill-opacity="1">
<use xlink:href="#glyph-3-16" x="435.535718" y="24.19763"/>
</g>
<g fill="rgb(0%, 0%, 0%)" fill-opacity="1">
<use xlink:href="#glyph-3-13" x="443.858837" y="24.19763"/>
</g>
<g fill="rgb(0%, 0%, 0%)" fill-opacity="1">
<use xlink:href="#glyph-3-2" x="448.843733" y="24.19763"/>
</g>
<g fill="rgb(0%, 0%, 0%)" fill-opacity="1">
<use xlink:href="#glyph-3-17" x="457.166852" y="24.19763"/>
</g>
<g fill="rgb(0%, 0%, 0%)" fill-opacity="1">
<use xlink:href="#glyph-3-16" x="460.490106" y="24.19763"/>
</g>
<g fill="rgb(0%, 0%, 0%)" fill-opacity="1">
<use xlink:href="#glyph-3-9" x="468.813225" y="24.19763"/>
</g>
<g fill="rgb(0%, 0%, 0%)" fill-opacity="1">
<use xlink:href="#glyph-3-18" x="472.974784" y="24.19763"/>
</g>
<g fill="rgb(0%, 0%, 0%)" fill-opacity="1">
<use xlink:href="#glyph-3-9" x="481.717048" y="24.19763"/>
</g>
<g fill="rgb(0%, 0%, 0%)" fill-opacity="1">
<use xlink:href="#glyph-3-13" x="485.878608" y="24.19763"/>
</g>
<g fill="rgb(0%, 0%, 0%)" fill-opacity="1">
<use xlink:href="#glyph-3-19" x="490.863504" y="24.19763"/>
</g>
<g fill="rgb(0%, 0%, 0%)" fill-opacity="1">
<use xlink:href="#glyph-3-20" x="499.186622" y="24.19763"/>
</g>
<g fill="rgb(0%, 0%, 0%)" fill-opacity="1">
<use xlink:href="#glyph-3-3" x="503.348182" y="24.19763"/>
</g>
<g fill="rgb(0%, 0%, 0%)" fill-opacity="1">
<use xlink:href="#glyph-3-13" x="511.671301" y="24.19763"/>
</g>
<g fill="rgb(0%, 0%, 0%)" fill-opacity="1">
<use xlink:href="#glyph-3-21" x="516.656197" y="24.19763"/>
</g>
<g fill="rgb(0%, 0%, 0%)" fill-opacity="1">
<use xlink:href="#glyph-3-19" x="524.979316" y="24.19763"/>
</g>
<g fill="rgb(0%, 0%, 0%)" fill-opacity="1">
<use xlink:href="#glyph-3-20" x="533.302434" y="24.19763"/>
</g>
<path fill-rule="nonzero" fill="rgb(27.450562%, 38.822937%, 49.803162%)" fill-opacity="1" stroke-width="1.2" stroke-linecap="butt" stroke-linejoin="miter" stroke="rgb(19.999695%, 25.489807%, 30.979919%)" stroke-opacity="1" stroke-miterlimit="10" d="M 568.830521 213.205531 L 588.331063 213.205531 L 588.331063 223.707328 L 568.830521 223.707328 Z M 568.830521 213.205531 " transform="matrix(0.997969, 0, 0, -0.997969, 0.422423, 237.034232)"/>
<g fill="rgb(0%, 0%, 0%)" fill-opacity="1">
<use xlink:href="#glyph-3-7" x="596.539129" y="24.260003"/>
</g>
<g fill="rgb(0%, 0%, 0%)" fill-opacity="1">
<use xlink:href="#glyph-3-8" x="605.099775" y="24.260003"/>
</g>
<g fill="rgb(0%, 0%, 0%)" fill-opacity="1">
<use xlink:href="#glyph-3-22" x="615.079399" y="24.260003"/>
</g>
<g fill="rgb(0%, 0%, 0%)" fill-opacity="1">
<use xlink:href="#glyph-3-5" x="624.466479" y="24.260003"/>
</g>
<g fill="rgb(0%, 0%, 0%)" fill-opacity="1">
<use xlink:href="#glyph-3-6" x="628.816959" y="24.260003"/>
</g>
<g fill="rgb(0%, 0%, 0%)" fill-opacity="1">
<use xlink:href="#glyph-3-7" x="638.593871" y="24.260003"/>
</g>
<g fill="rgb(0%, 0%, 0%)" fill-opacity="1">
<use xlink:href="#glyph-3-8" x="647.154517" y="24.260003"/>
</g>
</svg>
